<svg width="20" height="20" fill="none" xmlns="http://www.w3.org/2000/svg"><g clip-path="url(#clip0)"><path d="M12.096 14.822c.25-.06.52-.118.77-.178.96-.257 1.845-.672 2.576-1.363.77-.712 1.25-1.562 1.404-2.61.173-1.126.058-2.232-.404-3.28a4.179 4.179 0 00-.75-1.146c-.038-.02-.038-.06-.038-.08.135-.236.192-.513.23-.77a3.237 3.237 0 00-.095-1.482 2.23 2.23 0 00-.308-.692c-.039-.04-.077-.059-.116-.059-1.115.04-2.057.494-2.846 1.304-.038.04-.077.04-.134.02a6.731 6.731 0 00-1.25-.277c-.5-.059-.981-.059-1.481-.059-.712.04-1.404.119-2.096.376-.039.02-.058 0-.096-.02-.577-.613-1.25-1.028-2.058-1.225-.25-.08-.52-.08-.789-.119-.019 0-.077.02-.077.04-.211.296-.326.632-.403.988a3.305 3.305 0 00.096 1.62c.038.139.115.277.173.435l-.039.04a4.953 4.953 0 00-1.211 2.588 5.786 5.786 0 00-.039 1.522c.116 1.087.539 2.016 1.308 2.767a5.57 5.57 0 002.327 1.344c.365.138.75.197 1.135.296h.019c-.039.178-.116.316-.135.475-.038.276-.057.573-.077.85 0 .059-.019.079-.077.098a2.28 2.28 0 01-.961.139c-.404-.02-.808-.1-1.173-.297-.346-.178-.616-.454-.827-.79-.327-.534-.77-.87-1.366-1.008a1.164 1.164 0 00-.519.04c-.134.039-.173.138-.077.256a.83.83 0 00.231.218c.385.257.635.632.865 1.027.058.139.135.277.174.415.192.514.538.89.98 1.186.558.375 1.154.514 1.808.474.327-.02.635-.059.942-.079V19.19c0 .355-.269.711-.596.79a.912.912 0 01-.327 0c-1.134-.415-2.192-1.008-3.115-1.818C1.924 16.7.788 14.842.269 12.589a10.609 10.609 0 01-.25-3.024 10.263 10.263 0 012.058-5.593C3.519 2.075 5.385.83 7.673.257A9.047 9.047 0 0110.5 0c2.096.119 4 .83 5.654 2.174 1.808 1.462 3 3.36 3.558 5.672.211.909.307 1.838.269 2.786-.096 2.431-.923 4.546-2.481 6.384a9.739 9.739 0 01-3.77 2.747c-.153.06-.307.118-.48.178-.289.118-.558 0-.73-.198a.998.998 0 01-.212-.632v-3.083c0-.277 0-.573-.077-.83-.039-.119-.096-.257-.135-.376z" fill="#757575"/></g><defs><clipPath id="clip0"><path fill="#fff" d="M0 0h20v20H0z"/></clipPath></defs></svg>
