<svg width="20" height="20" viewBox="0 0 20 20" fill="none" xmlns="http://www.w3.org/2000/svg">
<g clip-path="url(#clip0)">
<path d="M12.0962 14.8221C12.3462 14.7628 12.6154 14.7035 12.8654 14.6442C13.8269 14.3873 14.7115 13.9723 15.4423 13.2806C16.2115 12.5691 16.6923 11.7193 16.8462 10.6719C17.0192 9.5454 16.9038 8.43868 16.4423 7.39125C16.25 6.95647 16 6.58097 15.6923 6.24501C15.6538 6.22524 15.6538 6.18572 15.6538 6.16595C15.7885 5.9288 15.8462 5.65212 15.8846 5.3952C15.9615 4.90113 15.9423 4.40706 15.7885 3.91299C15.7308 3.65607 15.6154 3.43868 15.4808 3.22129C15.4423 3.18176 15.4038 3.162 15.3654 3.162C14.25 3.20153 13.3077 3.65607 12.5192 4.46635C12.4808 4.50587 12.4423 4.50587 12.3846 4.48611C11.9808 4.34777 11.5577 4.26872 11.1346 4.20943C10.6346 4.15014 10.1538 4.15014 9.65384 4.15014C8.94231 4.18967 8.25 4.26872 7.55769 4.52564C7.51923 4.5454 7.5 4.52564 7.46154 4.50587C6.88461 3.89323 6.21154 3.47821 5.40384 3.28058C5.15384 3.20153 4.88461 3.20153 4.61538 3.162C4.59615 3.162 4.53846 3.18176 4.53846 3.20153C4.32692 3.49797 4.21154 3.83394 4.13461 4.18967C4.03846 4.74303 4.05769 5.27663 4.23077 5.81022C4.26923 5.94856 4.34615 6.0869 4.40384 6.24501C4.40384 6.24501 4.38461 6.26477 4.36538 6.28453C3.71154 7.01576 3.30769 7.88532 3.15384 8.87346C3.07692 9.3873 3.05769 9.90113 3.11538 10.3952C3.23077 11.4822 3.65384 12.411 4.42308 13.162C5.09615 13.8142 5.88461 14.249 6.75 14.5059C7.11538 14.6442 7.5 14.7035 7.88461 14.8023C7.90384 14.8023 7.90384 14.8023 7.90384 14.8023C7.86538 14.9802 7.78846 15.1185 7.76923 15.2766C7.73077 15.5533 7.71154 15.8497 7.69231 16.1264C7.69231 16.1857 7.67308 16.2055 7.61538 16.2252C7.30769 16.3438 6.98077 16.3833 6.65384 16.3636C6.25 16.3438 5.84615 16.2648 5.48077 16.0671C5.13461 15.8893 4.86538 15.6126 4.65384 15.2766C4.32692 14.743 3.88461 14.4071 3.28846 14.2687C3.11538 14.249 2.94231 14.249 2.76923 14.3082C2.63461 14.3478 2.59615 14.4466 2.69231 14.5652C2.75 14.6442 2.82692 14.7233 2.92308 14.7826C3.30769 15.0395 3.55769 15.415 3.78846 15.8102C3.84615 15.9486 3.92308 16.0869 3.96154 16.2252C4.15384 16.7391 4.5 17.1146 4.94231 17.411C5.5 17.7865 6.09615 17.9248 6.75 17.8853C7.07692 17.8656 7.38461 17.826 7.69231 17.8063C7.69231 17.8063 7.69231 17.826 7.69231 17.8458C7.69231 18.3003 7.69231 18.7549 7.69231 19.1897C7.69231 19.5454 7.42308 19.9011 7.09615 19.9802C6.98077 19.9999 6.88461 19.9999 6.76923 19.9802C5.63461 19.5652 4.57692 18.9723 3.65384 18.162C1.92308 16.6995 0.78846 14.8418 0.269229 12.5889C0.0384595 11.6007 -0.0384636 10.5928 0.0192287 9.56516C0.153844 7.49007 0.846152 5.61259 2.07692 3.97228C3.51923 2.07504 5.38461 0.829985 7.67308 0.256863C8.59615 0.0197088 9.53846 -0.0593425 10.5 -5.39962e-05C12.5962 0.118523 14.5 0.829985 16.1538 2.17386C17.9615 3.63631 19.1538 5.53354 19.7115 7.8458C19.9231 8.75489 20.0192 9.68374 19.9808 10.6324C19.8846 13.0632 19.0577 15.1778 17.5 17.0158C16.4615 18.2411 15.2115 19.1501 13.7308 19.7628C13.5769 19.8221 13.4231 19.8814 13.25 19.9407C12.9615 20.0592 12.6923 19.9407 12.5192 19.743C12.3846 19.5652 12.3077 19.3675 12.3077 19.1106C12.3077 18.0829 12.3077 17.0553 12.3077 16.0276C12.3077 15.7509 12.3077 15.4545 12.2308 15.1976C12.1923 15.079 12.1346 14.9407 12.0962 14.8221Z" fill="#3A3939"/>
</g>
<defs>
<clipPath id="clip0">
<rect width="20" height="20" fill="white"/>
</clipPath>
</defs>
</svg>
