<svg width="32" height="33" fill="none" xmlns="http://www.w3.org/2000/svg"><g clip-path="url(#clip0)" fill="#FEB960"><path d="M32 16.676c0-1.108-.09-2.222-.282-3.312H16.321v6.277h8.817a7.545 7.545 0 01-3.263 4.954v4.073h5.26C30.226 25.83 32 21.636 32 16.676z"/><path d="M16.32 32.604c4.404 0 8.116-1.444 10.822-3.936l-5.26-4.073c-1.464.994-3.354 1.558-5.555 1.558-4.259 0-7.87-2.87-9.165-6.727H1.733v4.199a16.329 16.329 0 0014.588 8.979z"/><path d="M7.156 19.426a9.752 9.752 0 010-6.242V8.985H1.733a16.296 16.296 0 000 14.64l5.423-4.2z"/><path d="M16.32 6.451a8.877 8.877 0 016.263 2.444l4.66-4.654A15.7 15.7 0 0016.321 0 16.323 16.323 0 001.733 8.985l5.423 4.2C8.446 9.32 12.062 6.45 16.32 6.45z"/></g><defs><clipPath id="clip0"><path fill="#fff" d="M0 0h32v32.604H0z"/></clipPath></defs></svg>