<svg width="96" height="96" viewBox="0 0 96 96" fill="none" xmlns="http://www.w3.org/2000/svg">
<circle cx="48" cy="48" r="44" fill="#FEB960" stroke="white" stroke-width="8"/>
<path d="M35.7841 38.6502C35.9508 35.3169 37.1175 32.7502 39.2841 30.9502C41.4841 29.1169 44.3675 28.2002 47.9341 28.2002C50.3675 28.2002 52.4508 28.6335 54.1841 29.5002C55.9175 30.3335 57.2175 31.4835 58.0842 32.9502C58.9841 34.3835 59.4341 36.0169 59.4341 37.8502C59.4341 39.9502 58.8841 41.7335 57.7841 43.2002C56.7175 44.6335 55.4342 45.6002 53.9341 46.1002V46.3002C55.8675 46.9002 57.3675 47.9669 58.4342 49.5002C59.5341 51.0335 60.0841 53.0002 60.0841 55.4002C60.0841 57.4002 59.6175 59.1835 58.6842 60.7502C57.7842 62.3169 56.4342 63.5502 54.6341 64.4502C52.8675 65.3169 50.7341 65.7502 48.2341 65.7502C44.4675 65.7502 41.4008 64.8002 39.0341 62.9002C36.6675 61.0002 35.4175 58.2002 35.2841 54.5002H42.0841C42.1508 56.1335 42.7008 57.4502 43.7341 58.4502C44.8008 59.4169 46.2508 59.9002 48.0842 59.9002C49.7842 59.9002 51.0842 59.4335 51.9841 58.5002C52.9175 57.5335 53.3841 56.3002 53.3841 54.8002C53.3841 52.8002 52.7508 51.3669 51.4841 50.5002C50.2175 49.6335 48.2508 49.2002 45.5842 49.2002H44.1341V43.4502H45.5842C50.3175 43.4502 52.6841 41.8669 52.6841 38.7002C52.6841 37.2669 52.2508 36.1502 51.3841 35.3502C50.5508 34.5502 49.3341 34.1502 47.7341 34.1502C46.1675 34.1502 44.9508 34.5835 44.0841 35.4502C43.2508 36.2835 42.7675 37.3502 42.6341 38.6502H35.7841Z" fill="white"/>
</svg>
