<svg width="136" height="136" viewBox="0 0 136 136" fill="none" xmlns="http://www.w3.org/2000/svg">
<path d="M36.7973 38.7523C36.2854 38.749 35.7949 38.5467 35.4295 38.1882C35.3432 38.0957 35.2632 37.9976 35.19 37.8945C35.1187 37.7879 35.0591 37.6739 35.0123 37.5545C34.9646 37.4399 34.9284 37.3208 34.9041 37.1991C34.8757 37.0749 34.8627 36.9478 34.8654 36.8204C34.8654 36.3079 35.0682 35.8162 35.4295 35.4527C35.5204 35.3646 35.6186 35.2844 35.7232 35.2132C35.9333 35.072 36.1699 34.9747 36.4186 34.9273C36.6731 34.8708 36.9369 34.8708 37.1914 34.9273C37.3131 34.9515 37.4322 34.9878 37.5468 35.0354C37.6638 35.0823 37.7752 35.1419 37.8791 35.2132C37.9851 35.2825 38.0835 35.3628 38.1727 35.4527C38.2655 35.5414 38.3484 35.6398 38.42 35.7464C38.4868 35.8529 38.5462 35.9639 38.5977 36.0786C38.6454 36.1959 38.6816 36.3175 38.7059 36.4418C38.7177 36.5677 38.7177 36.6945 38.7059 36.8204C38.7173 36.9464 38.7173 37.0731 38.7059 37.1991C38.6816 37.3208 38.6454 37.4399 38.5977 37.5545C38.548 37.6726 38.4885 37.7863 38.42 37.8945C38.3464 37.9995 38.2637 38.0978 38.1727 38.1882C38.0815 38.2759 37.9833 38.356 37.8791 38.4277C37.7735 38.4961 37.6623 38.5555 37.5468 38.6054C37.4322 38.6531 37.3131 38.6894 37.1914 38.7136C37.0614 38.7385 36.9295 38.7514 36.7973 38.7523Z" fill="#E69B38"/>
<path d="M42.7164 36.8127C42.7164 36.3004 42.9199 35.809 43.2822 35.4467C43.6445 35.0844 44.1358 34.8809 44.6482 34.8809C44.9015 34.8799 45.1525 34.9289 45.3869 35.0251C45.6212 35.1214 45.8342 35.2629 46.0137 35.4417C46.1932 35.6205 46.3356 35.8329 46.4328 36.0669C46.53 36.3008 46.58 36.5517 46.58 36.805C46.581 37.0583 46.532 37.3093 46.4358 37.5437C46.3395 37.778 46.198 37.991 46.0192 38.1705C45.8404 38.35 45.628 38.4924 45.394 38.5896C45.1601 38.6868 44.9092 38.7368 44.6559 38.7368C44.1442 38.7368 43.6532 38.5346 43.2899 38.1742C42.9266 37.8138 42.7204 37.3244 42.7164 36.8127ZM50.575 36.8127C50.574 36.5587 50.6233 36.3071 50.72 36.0722C50.8167 35.8374 50.959 35.624 51.1385 35.4444C51.3181 35.2648 51.5315 35.1226 51.7663 35.0259C52.0012 34.9291 52.2528 34.8799 52.5068 34.8809C53.0192 34.8809 53.5105 35.0844 53.8728 35.4467C54.2351 35.809 54.4386 36.3004 54.4386 36.8127C54.4386 37.3251 54.2351 37.8164 53.8728 38.1787C53.5105 38.541 53.0192 38.7445 52.5068 38.7445C52.2515 38.7456 51.9986 38.6958 51.7627 38.5981C51.5269 38.5004 51.3128 38.3568 51.133 38.1756C50.9532 37.9943 50.8113 37.7791 50.7155 37.5425C50.6197 37.3059 50.5719 37.0525 50.575 36.7973V36.8127ZM58.4259 36.8127C58.4259 36.3004 58.6294 35.809 58.9917 35.4467C59.354 35.0844 59.8454 34.8809 60.3577 34.8809C60.6111 34.8799 60.8621 34.9289 61.0964 35.0251C61.3308 35.1214 61.5438 35.2629 61.7233 35.4417C61.9028 35.6205 62.0452 35.8329 62.1424 36.0669C62.2395 36.3008 62.2896 36.5517 62.2895 36.805C62.2906 37.0587 62.2416 37.3101 62.1455 37.5448C62.0493 37.7796 61.9079 37.9931 61.7292 38.1733C61.5505 38.3534 61.3381 38.4965 61.1041 38.5945C60.8702 38.6925 60.6192 38.7435 60.3655 38.7445C60.1097 38.7435 59.8567 38.6921 59.6209 38.5933C59.385 38.4945 59.1709 38.3503 58.9908 38.1687C58.8107 37.9872 58.6681 37.772 58.5712 37.5353C58.4743 37.2987 58.4249 37.0452 58.4259 36.7895V36.8127ZM66.2845 36.8127C66.2845 36.2996 66.4878 35.8075 66.8499 35.444C67.212 35.0805 67.7033 34.8752 68.2164 34.8732C68.7287 34.8732 69.2201 35.0767 69.5824 35.439C69.9447 35.8013 70.1482 36.2926 70.1482 36.805C70.1482 37.3173 69.9447 37.8087 69.5824 38.171C69.2201 38.5333 68.7287 38.7368 68.2164 38.7368C67.9604 38.7379 67.7068 38.6878 67.4705 38.5897C67.2341 38.4915 67.0197 38.3472 66.8398 38.1651C66.6599 37.9831 66.5181 37.7669 66.4228 37.5294C66.3274 37.2919 66.2804 37.0377 66.2845 36.7818V36.8127ZM74.1432 36.8127C74.1422 36.5594 74.1912 36.3084 74.2874 36.074C74.3837 35.8397 74.5252 35.6267 74.704 35.4472C74.8828 35.2677 75.0952 35.1253 75.3292 35.0281C75.5631 34.9309 75.8139 34.8809 76.0673 34.8809C76.5797 34.8829 77.0707 35.0868 77.4338 35.4485C77.7969 35.8101 78.0028 36.3003 78.0068 36.8127C78.0068 37.3251 77.8033 37.8164 77.441 38.1787C77.0787 38.541 76.5873 38.7445 76.075 38.7445C75.8206 38.7395 75.5698 38.6843 75.3368 38.5821C75.1038 38.4798 74.8933 38.3326 74.7174 38.1488C74.5415 37.965 74.4036 37.7482 74.3117 37.511C74.2198 37.2737 74.1757 37.0207 74.1818 36.7663L74.1432 36.8127ZM81.9941 36.8127C81.9941 36.3004 82.1976 35.809 82.5599 35.4467C82.9222 35.0844 83.4136 34.8809 83.9259 34.8809C84.1792 34.8799 84.4303 34.9289 84.6646 35.0251C84.8989 35.1214 85.112 35.2629 85.2914 35.4417C85.4709 35.6205 85.6134 35.8329 85.7105 36.0669C85.8077 36.3008 85.8577 36.5517 85.8577 36.805C85.8557 37.3174 85.6518 37.8084 85.2901 38.1715C84.9285 38.5346 84.4383 38.7405 83.9259 38.7445C83.6676 38.7446 83.4119 38.6929 83.1739 38.5925C82.9359 38.492 82.7205 38.3449 82.5404 38.1597C82.3603 37.9746 82.2192 37.7552 82.1253 37.5145C82.0315 37.2739 81.9869 37.0168 81.9941 36.7586V36.8127ZM89.8527 36.8127C89.8507 36.5587 89.8989 36.3069 89.9947 36.0716C90.0905 35.8364 90.2319 35.6225 90.4108 35.4422C90.5897 35.2619 90.8025 35.1188 91.0369 35.0211C91.2714 34.9234 91.5228 34.8732 91.7768 34.8732C92.2893 34.8752 92.7803 35.0791 93.1433 35.4407C93.5064 35.8024 93.7123 36.2926 93.7164 36.805C93.7164 37.3173 93.5128 37.8087 93.1505 38.171C92.7883 38.5333 92.2969 38.7368 91.7845 38.7368C91.5259 38.738 91.2697 38.687 91.0313 38.5869C90.7928 38.4868 90.577 38.3397 90.3966 38.1544C90.2163 37.969 90.0752 37.7492 89.9817 37.508C89.8883 37.2669 89.8444 37.0094 89.8527 36.7509V36.8127Z" fill="#E69B38"/>
<path d="M99.6355 38.6364C99.5095 38.6478 99.3828 38.6478 99.2568 38.6364C99.1328 38.611 99.0113 38.5748 98.8936 38.5282C98.7789 38.4766 98.6679 38.4172 98.5614 38.3505C98.3494 38.2106 98.168 38.0292 98.0282 37.8173C97.9614 37.7107 97.902 37.5997 97.8505 37.485C97.8038 37.3674 97.7676 37.2458 97.7423 37.1218C97.6887 36.867 97.6887 36.6039 97.7423 36.3491C97.7665 36.2248 97.8028 36.1032 97.8505 35.9859C97.902 35.8712 97.9614 35.7602 98.0282 35.6536C98.0995 35.5491 98.1796 35.4508 98.2677 35.36C98.3602 35.2737 98.4583 35.1937 98.5614 35.1205C98.6662 35.0507 98.7775 34.9912 98.8936 34.9427C99.0113 34.8961 99.1328 34.8599 99.2568 34.8346C99.5113 34.7781 99.7751 34.7781 100.03 34.8346C100.278 34.882 100.515 34.9792 100.725 35.1205C100.937 35.2603 101.118 35.4417 101.258 35.6536C101.399 35.8638 101.497 36.1004 101.544 36.3491C101.598 36.6039 101.598 36.867 101.544 37.1218C101.519 37.2458 101.483 37.3674 101.436 37.485C101.387 37.6012 101.328 37.7125 101.258 37.8173C101.185 37.9204 101.105 38.0185 101.019 38.1109C100.928 38.1991 100.83 38.2792 100.725 38.3505C100.618 38.4172 100.507 38.4766 100.393 38.5282C100.275 38.5759 100.154 38.6121 100.03 38.6364C99.8985 38.6487 99.7665 38.6487 99.6355 38.6364Z" fill="#E69B38"/>
<path d="M97.7036 90.4941C97.7036 89.9818 97.9072 89.4904 98.2694 89.1281C98.6317 88.7658 99.1231 88.5623 99.6354 88.5623C100.148 88.5623 100.639 88.7658 101.001 89.1281C101.364 89.4904 101.567 89.9818 101.567 90.4941C101.568 90.7481 101.519 90.9997 101.422 91.2346C101.326 91.4694 101.183 91.6828 101.004 91.8624C100.824 92.042 100.611 92.1842 100.376 92.281C100.141 92.3777 99.8894 92.4269 99.6354 92.4259C99.3815 92.4269 99.1298 92.3777 98.895 92.281C98.6601 92.1842 98.4468 92.042 98.2672 91.8624C98.0876 91.6828 97.9453 91.4694 97.8486 91.2346C97.7519 90.9997 97.7026 90.7481 97.7036 90.4941ZM97.7036 82.8209C97.7026 82.5669 97.7519 82.3153 97.8486 82.0804C97.9453 81.8456 98.0876 81.6322 98.2672 81.4526C98.4468 81.2731 98.6601 81.1308 98.895 81.0341C99.1298 80.9374 99.3815 80.8881 99.6354 80.8891C99.8894 80.8881 100.141 80.9374 100.376 81.0341C100.611 81.1308 100.824 81.2731 101.004 81.4526C101.183 81.6322 101.326 81.8456 101.422 82.0804C101.519 82.3153 101.568 82.5669 101.567 82.8209C101.567 83.3333 101.364 83.8246 101.001 84.1869C100.639 84.5492 100.148 84.7527 99.6354 84.7527C99.1231 84.7527 98.6317 84.5492 98.2694 84.1869C97.9072 83.8246 97.7036 83.3333 97.7036 82.8209ZM97.7036 75.14C97.7036 74.6277 97.9072 74.1363 98.2694 73.774C98.6317 73.4117 99.1231 73.2082 99.6354 73.2082C100.148 73.2082 100.639 73.4117 101.001 73.774C101.364 74.1363 101.567 74.6277 101.567 75.14C101.567 75.6524 101.364 76.1437 101.001 76.506C100.639 76.8683 100.148 77.0718 99.6354 77.0718C99.1231 77.0718 98.6317 76.8683 98.2694 76.506C97.9072 76.1437 97.7036 75.6524 97.7036 75.14ZM97.7036 67.4591C97.7036 66.9468 97.9072 66.4554 98.2694 66.0931C98.6317 65.7308 99.1231 65.5273 99.6354 65.5273C100.148 65.5273 100.639 65.7308 101.001 66.0931C101.364 66.4554 101.567 66.9468 101.567 67.4591C101.567 67.9715 101.364 68.4628 101.001 68.8251C100.639 69.1874 100.148 69.3909 99.6354 69.3909C99.1231 69.3909 98.6317 69.1874 98.2694 68.8251C97.9072 68.4628 97.7036 67.9715 97.7036 67.4591ZM97.7036 59.7782C97.7036 59.2658 97.9072 58.7745 98.2694 58.4122C98.6317 58.0499 99.1231 57.8464 99.6354 57.8464C100.148 57.8464 100.639 58.0499 101.001 58.4122C101.364 58.7745 101.567 59.2658 101.567 59.7782C101.567 60.2905 101.364 60.7819 101.001 61.1442C100.639 61.5065 100.148 61.71 99.6354 61.71C99.1231 61.71 98.6317 61.5065 98.2694 61.1442C97.9072 60.7819 97.7036 60.2905 97.7036 59.7782ZM97.7036 52.0973C97.7036 51.5849 97.9072 51.0936 98.2694 50.7313C98.6317 50.369 99.1231 50.1655 99.6354 50.1655C100.148 50.1655 100.639 50.369 101.001 50.7313C101.364 51.0936 101.567 51.5849 101.567 52.0973C101.567 52.6096 101.364 53.101 101.001 53.4633C100.639 53.8256 100.148 54.0291 99.6354 54.0291C99.1231 54.0291 98.6317 53.8256 98.2694 53.4633C97.9072 53.101 97.7036 52.6096 97.7036 52.0973ZM97.7036 44.4164C97.7036 43.904 97.9072 43.4127 98.2694 43.0504C98.6317 42.6881 99.1231 42.4846 99.6354 42.4846C100.148 42.4846 100.639 42.6881 101.001 43.0504C101.364 43.4127 101.567 43.904 101.567 44.4164C101.567 44.9287 101.364 45.4201 101.001 45.7824C100.639 46.1447 100.148 46.3482 99.6354 46.3482C99.3818 46.3482 99.1305 46.2982 98.8962 46.2011C98.6618 46.1041 98.4488 45.9618 98.2694 45.7824C98.0901 45.603 97.9478 45.39 97.8507 45.1557C97.7536 44.9213 97.7036 44.6701 97.7036 44.4164Z" fill="#E69B38"/>
<path d="M99.6355 100.107C99.5095 100.118 99.3828 100.118 99.2568 100.107C99.1326 100.079 99.0111 100.04 98.8936 99.9909C98.7775 99.9424 98.6662 99.8829 98.5614 99.8132C98.4565 99.7423 98.3582 99.6622 98.2677 99.5736C98.1778 99.4844 98.0975 99.386 98.0282 99.28C97.9598 99.1744 97.9004 99.0632 97.8505 98.9477C97.8028 98.8304 97.7665 98.7088 97.7423 98.5845C97.6876 98.3299 97.6876 98.0665 97.7423 97.8118C97.7665 97.6875 97.8028 97.5659 97.8505 97.4486C97.9004 97.3331 97.9598 97.222 98.0282 97.1163C98.0975 97.0103 98.1778 96.9119 98.2677 96.8227C98.3582 96.7342 98.4565 96.654 98.5614 96.5832C98.6662 96.5134 98.7775 96.4539 98.8936 96.4054C99.0101 96.3553 99.1319 96.319 99.2568 96.2973C99.5113 96.2408 99.7751 96.2408 100.03 96.2973C100.155 96.3183 100.277 96.3546 100.393 96.4054C100.509 96.4539 100.62 96.5134 100.725 96.5832C100.831 96.652 100.93 96.7324 101.019 96.8227C101.109 96.9119 101.189 97.0103 101.258 97.1163C101.329 97.2202 101.389 97.3317 101.436 97.4486C101.484 97.5659 101.52 97.6875 101.544 97.8118C101.599 98.0665 101.599 98.3299 101.544 98.5845C101.52 98.7088 101.484 98.8304 101.436 98.9477C101.389 99.0647 101.329 99.1761 101.258 99.28C101.189 99.386 101.109 99.4844 101.019 99.5736C100.93 99.664 100.831 99.7443 100.725 99.8132C100.513 99.9525 100.277 100.052 100.03 100.107C99.8985 100.119 99.7665 100.119 99.6355 100.107Z" fill="#E69B38"/>
<path d="M89.8914 98.1827C89.8903 97.9284 89.9396 97.6764 90.0362 97.4411C90.1328 97.2058 90.2749 96.9919 90.4544 96.8117C90.6339 96.6315 90.8472 96.4885 91.0821 96.391C91.317 96.2934 91.5688 96.2432 91.8232 96.2432C92.0775 96.2432 92.3294 96.2934 92.5642 96.391C92.7991 96.4885 93.0124 96.6315 93.1919 96.8117C93.3714 96.9919 93.5135 97.2058 93.6102 97.4411C93.7068 97.6764 93.756 97.9284 93.755 98.1827C93.755 98.4361 93.705 98.6869 93.6078 98.9208C93.5106 99.1548 93.3682 99.3672 93.1887 99.546C93.0092 99.7248 92.7962 99.8663 92.5619 99.9626C92.3275 100.059 92.0765 100.108 91.8232 100.107C91.5698 100.108 91.3188 100.059 91.0845 99.9626C90.8501 99.8663 90.6371 99.7248 90.4576 99.546C90.2781 99.3672 90.1357 99.1548 90.0386 98.9208C89.9414 98.6869 89.8913 98.4361 89.8914 98.1827ZM82.0791 98.1827C82.0781 97.9284 82.1273 97.6764 82.2239 97.4411C82.3205 97.2058 82.4627 96.9919 82.6422 96.8117C82.8216 96.6315 83.035 96.4885 83.2698 96.391C83.5047 96.2934 83.7566 96.2432 84.0109 96.2432C84.2652 96.2432 84.5171 96.2934 84.752 96.391C84.9868 96.4885 85.2001 96.6315 85.3796 96.8117C85.5591 96.9919 85.7013 97.2058 85.7979 97.4411C85.8945 97.6764 85.9437 97.9284 85.9427 98.1827C85.9427 98.4361 85.8927 98.6869 85.7955 98.9208C85.6983 99.1548 85.5559 99.3672 85.3764 99.546C85.1969 99.7248 84.9839 99.8663 84.7496 99.9626C84.5153 100.059 84.2642 100.108 84.0109 100.107C83.7576 100.108 83.5065 100.059 83.2722 99.9626C83.0379 99.8663 82.8248 99.7248 82.6454 99.546C82.4659 99.3672 82.3235 99.1548 82.2263 98.9208C82.1291 98.6869 82.0791 98.4361 82.0791 98.1827ZM74.2745 98.1827C74.2725 97.9288 74.3208 97.6769 74.4165 97.4417C74.5123 97.2064 74.6537 96.9925 74.8326 96.8122C75.0115 96.6319 75.2243 96.4888 75.4587 96.3911C75.6932 96.2935 75.9446 96.2432 76.1986 96.2432C76.4533 96.2432 76.7055 96.2934 76.9409 96.3908C77.1762 96.4883 77.39 96.6312 77.5701 96.8113C77.7502 96.9914 77.8931 97.2052 77.9905 97.4405C78.088 97.6758 78.1382 97.928 78.1382 98.1827C78.1372 98.4364 78.0862 98.6874 77.9882 98.9214C77.8902 99.1554 77.747 99.3678 77.5669 99.5465C77.3868 99.7251 77.1733 99.8666 76.9385 99.9627C76.7037 100.059 76.4523 100.108 76.1986 100.107C75.9457 100.108 75.695 100.059 75.4611 99.9624C75.2272 99.8661 75.0147 99.7244 74.8358 99.5455C74.6569 99.3667 74.5152 99.1542 74.4189 98.9203C74.3226 98.6864 74.2735 98.4357 74.2745 98.1827ZM66.4623 98.1827C66.4612 97.9284 66.5105 97.6764 66.6071 97.4411C66.7037 97.2058 66.8459 96.9919 67.0253 96.8117C67.2048 96.6315 67.4181 96.4885 67.653 96.391C67.8879 96.2934 68.1397 96.2432 68.3941 96.2432C68.6484 96.2432 68.9003 96.2934 69.1351 96.391C69.37 96.4885 69.5833 96.6315 69.7628 96.8117C69.9423 96.9919 70.0844 97.2058 70.1811 97.4411C70.2777 97.6764 70.3269 97.9284 70.3259 98.1827C70.3259 98.4361 70.2759 98.6869 70.1787 98.9208C70.0815 99.1548 69.9391 99.3672 69.7596 99.546C69.5801 99.7248 69.3671 99.8663 69.1328 99.9626C68.8984 100.059 68.6474 100.108 68.3941 100.107C68.1401 100.109 67.8882 100.061 67.653 99.9648C67.4178 99.869 67.2038 99.7276 67.0235 99.5488C66.8432 99.3699 66.7001 99.1571 66.6025 98.9226C66.5048 98.6882 66.4545 98.4367 66.4545 98.1827H66.4623ZM58.65 98.1827C58.649 97.9284 58.6982 97.6764 58.7948 97.4411C58.8914 97.2058 59.0336 96.9919 59.2131 96.8117C59.3926 96.6315 59.6059 96.4885 59.8407 96.391C60.0756 96.2934 60.3275 96.2432 60.5818 96.2432C60.8362 96.2432 61.088 96.2934 61.3229 96.391C61.5578 96.4885 61.7711 96.6315 61.9506 96.8117C62.13 96.9919 62.2722 97.2058 62.3688 97.4411C62.4654 97.6764 62.5146 97.9284 62.5136 98.1827C62.5136 98.4361 62.4636 98.6869 62.3664 98.9208C62.2693 99.1548 62.1268 99.3672 61.9473 99.546C61.7679 99.7248 61.5548 99.8663 61.3205 99.9626C61.0862 100.059 60.8351 100.108 60.5818 100.107C60.3285 100.108 60.0775 100.059 59.8431 99.9626C59.6088 99.8663 59.3958 99.7248 59.2163 99.546C59.0368 99.3672 58.8944 99.1548 58.7972 98.9208C58.7 98.6869 58.65 98.4361 58.65 98.1827ZM50.8377 98.1827C50.8367 97.9284 50.8859 97.6764 50.9826 97.4411C51.0792 97.2058 51.2213 96.9919 51.4008 96.8117C51.5803 96.6315 51.7936 96.4885 52.0285 96.391C52.2634 96.2934 52.5152 96.2432 52.7695 96.2432C53.0239 96.2432 53.2757 96.2934 53.5106 96.391C53.7455 96.4885 53.9588 96.6315 54.1383 96.8117C54.3178 96.9919 54.4599 97.2058 54.5565 97.4411C54.6532 97.6764 54.7024 97.9284 54.7014 98.1827C54.7014 98.4361 54.6513 98.6869 54.5542 98.9208C54.457 99.1548 54.3146 99.3672 54.1351 99.546C53.9556 99.7248 53.7426 99.8663 53.5082 99.9626C53.2739 100.059 53.0229 100.108 52.7695 100.107C52.5162 100.108 52.2652 100.059 52.0308 99.9626C51.7965 99.8663 51.5835 99.7248 51.404 99.546C51.2245 99.3672 51.0821 99.1548 50.9849 98.9208C50.8877 98.6869 50.8377 98.4361 50.8377 98.1827ZM43.0255 98.1827C43.0244 97.9284 43.0737 97.6764 43.1703 97.4411C43.2669 97.2058 43.409 96.9919 43.5885 96.8117C43.768 96.6315 43.9813 96.4885 44.2162 96.391C44.4511 96.2934 44.7029 96.2432 44.9573 96.2432C45.2116 96.2432 45.4634 96.2934 45.6983 96.391C45.9332 96.4885 46.1465 96.6315 46.326 96.8117C46.5055 96.9919 46.6476 97.2058 46.7443 97.4411C46.8409 97.6764 46.8901 97.9284 46.8891 98.1827C46.8891 98.4361 46.8391 98.6869 46.7419 98.9208C46.6447 99.1548 46.5023 99.3672 46.3228 99.546C46.1433 99.7248 45.9303 99.8663 45.696 99.9626C45.4616 100.059 45.2106 100.108 44.9573 100.107C44.7039 100.108 44.4529 100.059 44.2186 99.9626C43.9842 99.8663 43.7712 99.7248 43.5917 99.546C43.4122 99.3672 43.2698 99.1548 43.1726 98.9208C43.0755 98.6869 43.0254 98.4361 43.0255 98.1827Z" fill="#E69B38"/>
<path d="M37.145 100.107C36.6325 100.107 36.1407 99.9041 35.7773 99.5427C35.6873 99.4535 35.607 99.3551 35.5377 99.2491C35.4694 99.1434 35.4099 99.0323 35.36 98.9168C35.3123 98.7995 35.2761 98.6779 35.2518 98.5536C35.1971 98.2989 35.1971 98.0356 35.2518 97.7809C35.2761 97.6566 35.3123 97.535 35.36 97.4177C35.4099 97.3022 35.4694 97.1911 35.5377 97.0854C35.607 96.9794 35.6873 96.881 35.7773 96.7918C36.003 96.5678 36.2803 96.4026 36.5848 96.311C36.8894 96.2194 37.2118 96.204 37.5236 96.2663C37.6487 96.2874 37.7706 96.3237 37.8868 96.3745C38.003 96.423 38.1143 96.4825 38.2191 96.5522C38.3254 96.6211 38.4239 96.7014 38.5127 96.7918C38.6049 96.879 38.6854 96.9777 38.7523 97.0854C38.8235 97.1893 38.8831 97.3008 38.93 97.4177C38.9777 97.535 39.0139 97.6566 39.0382 97.7809C39.0537 97.9066 39.0537 98.0338 39.0382 98.1595C39.0531 98.2827 39.0531 98.4072 39.0382 98.5304C39.0139 98.6547 38.9777 98.7763 38.93 98.8936C38.8831 99.0106 38.8235 99.122 38.7523 99.2259C38.6854 99.3337 38.6049 99.4323 38.5127 99.5195C38.4239 99.6099 38.3254 99.6902 38.2191 99.7591C38.007 99.8984 37.7714 99.9979 37.5236 100.053C37.3993 100.082 37.2726 100.1 37.145 100.107Z" fill="#E69B38"/>
<path d="M35.1745 90.5173C35.1725 90.264 35.2205 90.0127 35.3158 89.778C35.4111 89.5433 35.5518 89.3297 35.7299 89.1495C35.9079 88.9693 36.1198 88.826 36.3534 88.7279C36.5869 88.6298 36.8376 88.5787 37.0909 88.5777C37.3446 88.5757 37.5962 88.6236 37.8314 88.7189C38.0665 88.8141 38.2806 88.9547 38.4615 89.1326C38.6423 89.3106 38.7863 89.5224 38.8852 89.756C38.9842 89.9896 39.0362 90.2404 39.0382 90.4941C39.0392 90.7501 38.9895 91.0038 38.892 91.2405C38.7945 91.4772 38.6511 91.6923 38.4701 91.8733C38.2891 92.0543 38.074 92.1977 37.8373 92.2952C37.6006 92.3927 37.3469 92.4424 37.0909 92.4414C36.5819 92.4393 36.0945 92.2357 35.7354 91.8751C35.3762 91.5145 35.1745 91.0262 35.1745 90.5173ZM35.1282 82.8518C35.1261 82.5981 35.1741 82.3465 35.2693 82.1114C35.3645 81.8762 35.5051 81.6621 35.6831 81.4813C35.861 81.3004 36.0728 81.1565 36.3064 81.0575C36.54 80.9585 36.7909 80.9066 37.0445 80.9045C37.5576 80.9025 38.0506 81.1038 38.4156 81.4644C38.7805 81.825 38.9877 82.3156 38.9918 82.8286C38.9939 83.337 38.7955 83.8257 38.4397 84.1888C38.0838 84.5519 37.5992 84.7601 37.0909 84.7682C36.8359 84.7723 36.5827 84.7258 36.3457 84.6315C36.1088 84.5373 35.8928 84.397 35.7104 84.2188C35.5279 84.0407 35.3825 83.8282 35.2826 83.5935C35.1827 83.3589 35.1302 83.1068 35.1282 82.8518ZM35.0818 75.1786C35.0808 74.9249 35.1298 74.6735 35.2259 74.4388C35.3221 74.204 35.4635 73.9905 35.6422 73.8104C35.8208 73.6303 36.0332 73.4871 36.2672 73.3891C36.5012 73.2911 36.7522 73.2401 37.0059 73.2391C37.2592 73.2371 37.5105 73.2851 37.7452 73.3804C37.9799 73.4757 38.1935 73.6164 38.3737 73.7944C38.5539 73.9725 38.6972 74.1844 38.7953 74.4179C38.8934 74.6515 38.9444 74.9021 38.9455 75.1555C38.9475 75.4092 38.8995 75.6608 38.8043 75.8959C38.7091 76.1311 38.5685 76.3452 38.3906 76.526C38.2126 76.7068 38.0008 76.8508 37.7672 76.9498C37.5336 77.0487 37.2828 77.1007 37.0291 77.1027C36.516 77.1048 36.023 76.9035 35.6581 76.5429C35.2931 76.1822 35.0859 75.6917 35.0818 75.1786ZM35.0355 67.5132C35.0354 67.0007 35.2374 66.5089 35.5976 66.1444C35.9578 65.7799 36.4471 65.572 36.9595 65.5659C37.2135 65.5639 37.4654 65.6121 37.7006 65.7079C37.9358 65.8037 38.1498 65.9451 38.3301 66.124C38.5104 66.3028 38.6535 66.5156 38.7512 66.7501C38.8488 66.9846 38.8991 67.236 38.8991 67.49C38.9011 67.7433 38.8531 67.9946 38.7578 68.2293C38.6625 68.464 38.5218 68.6776 38.3438 68.8578C38.1657 69.038 37.9538 69.1813 37.7203 69.2794C37.4867 69.3775 37.2361 69.4285 36.9827 69.4295C36.729 69.4316 36.4774 69.3836 36.2423 69.2884C36.0071 69.1932 35.793 69.0526 35.6122 68.8747C35.4314 68.6967 35.2874 68.4849 35.1884 68.2513C35.0894 68.0177 35.0375 67.7669 35.0355 67.5132ZM34.9968 59.84C34.9948 59.5867 35.0428 59.3354 35.1381 59.1007C35.2334 58.866 35.3741 58.6524 35.5522 58.4722C35.7302 58.292 35.9421 58.1487 36.1757 58.0506C36.4092 57.9525 36.6599 57.9015 36.9132 57.9005C37.1669 57.8984 37.4185 57.9464 37.6536 58.0416C37.8888 58.1368 38.1029 58.2774 38.2837 58.4553C38.4645 58.6333 38.6085 58.8451 38.7075 59.0787C38.8065 59.3123 38.8584 59.5631 38.8605 59.8168C38.8605 60.3293 38.6585 60.8211 38.2983 61.1856C37.9381 61.5501 37.4488 61.758 36.9364 61.7641C36.6827 61.7651 36.4313 61.7161 36.1965 61.62C35.9617 61.5239 35.7482 61.3824 35.5681 61.2037C35.388 61.0251 35.2448 60.8127 35.1468 60.5787C35.0488 60.3447 34.9978 60.0937 34.9968 59.84ZM34.9505 52.1668C34.9494 51.9131 34.9984 51.6617 35.0945 51.427C35.1907 51.1922 35.3321 50.9787 35.5108 50.7985C35.6895 50.6184 35.9019 50.4753 36.1359 50.3773C36.3698 50.2793 36.6209 50.2283 36.8745 50.2273C37.1282 50.2263 37.3796 50.2752 37.6144 50.3714C37.8492 50.4675 38.0627 50.609 38.2428 50.7876C38.4229 50.9663 38.5661 51.1787 38.6641 51.4127C38.7621 51.6467 38.8131 51.8977 38.8141 52.1514C38.8161 52.4047 38.7681 52.6559 38.6728 52.8906C38.5775 53.1254 38.4368 53.339 38.2588 53.5192C38.0807 53.6994 37.8688 53.8426 37.6353 53.9408C37.4017 54.0389 37.1511 54.0899 36.8977 54.0909C36.3847 54.093 35.8917 53.8917 35.5267 53.531C35.1617 53.1704 34.9545 52.6799 34.9505 52.1668ZM34.9505 44.5014C34.9484 44.2477 34.9964 43.9961 35.0916 43.7609C35.1868 43.5257 35.3274 43.3116 35.5053 43.1308C35.6833 42.95 35.8951 42.806 36.1287 42.707C36.3623 42.6081 36.6131 42.5561 36.8668 42.5541C37.1205 42.5531 37.3719 42.602 37.6067 42.6982C37.8414 42.7943 38.055 42.9358 38.2351 43.1144C38.4152 43.2931 38.5583 43.5055 38.6564 43.7395C38.7544 43.9735 38.8053 44.2245 38.8064 44.4782C38.8084 44.7315 38.7604 44.9827 38.6651 45.2175C38.5698 45.4522 38.4291 45.6658 38.251 45.846C38.073 46.0262 37.8611 46.1695 37.6275 46.2676C37.394 46.3657 37.1433 46.4167 36.89 46.4177C36.6335 46.4249 36.3781 46.3808 36.1389 46.2878C35.8996 46.1948 35.6815 46.0549 35.4971 45.8764C35.3128 45.6978 35.166 45.4841 35.0655 45.248C34.965 45.0119 34.9127 44.758 34.9118 44.5014H34.9505Z" fill="#E69B38"/>
<path d="M51.4559 72.8218C50.9437 72.8202 50.4526 72.6177 50.0882 72.2577C49.9996 72.1673 49.9195 72.069 49.8486 71.9641C49.7093 71.7521 49.6098 71.5164 49.555 71.2686C49.5436 71.1427 49.5436 71.016 49.555 70.89C49.5549 70.6035 49.6186 70.3206 49.7414 70.0617C49.8642 69.8029 50.043 69.5746 50.2649 69.3934C50.4868 69.2121 50.7462 69.0825 51.0244 69.014C51.3025 68.9454 51.5925 68.9395 51.8732 68.9968C51.9974 69.0211 52.1191 69.0573 52.2364 69.105C52.3533 69.1519 52.4647 69.2115 52.5686 69.2827C52.6747 69.352 52.7731 69.4323 52.8623 69.5223C53.2236 69.8857 53.4264 70.3775 53.4264 70.89C53.4419 71.0157 53.4419 71.1429 53.4264 71.2686C53.3789 71.5174 53.2817 71.7539 53.1404 71.9641C53.0696 72.069 52.9894 72.1673 52.9009 72.2577C52.7115 72.4457 52.4856 72.5928 52.237 72.6899C51.9884 72.7869 51.7226 72.8318 51.4559 72.8218Z" fill="#E69B38"/>
<path d="M55.1573 76.0982C54.7486 75.7896 54.4791 75.3314 54.4081 74.8243C54.3371 74.3171 54.4704 73.8026 54.7786 73.3936C54.9302 73.1898 55.1206 73.0181 55.3389 72.8882C55.5572 72.7584 55.799 72.6731 56.0504 72.6371C56.3019 72.6012 56.5579 72.6154 56.8038 72.679C57.0497 72.7425 57.2806 72.8541 57.4832 73.0073C57.8919 73.3158 58.1613 73.774 58.2323 74.2812C58.3033 74.7883 58.17 75.3029 57.8618 75.7118C57.6819 75.9517 57.4485 76.1465 57.1803 76.2806C56.912 76.4147 56.6163 76.4845 56.3164 76.4845C55.8982 76.4857 55.4911 76.35 55.1573 76.0982Z" fill="#E69B38"/>
<path d="M61.1846 80.1473C61.0612 80.1587 60.937 80.1587 60.8136 80.1473C60.6894 80.123 60.5677 80.0868 60.4505 80.0391C60.335 79.9892 60.2238 79.9297 60.1182 79.8614C60.0122 79.7921 59.9137 79.7118 59.8245 79.6218C59.736 79.5313 59.6558 79.4331 59.585 79.3282C59.5152 79.2207 59.4557 79.1068 59.4073 78.9882C59.3571 78.8738 59.3183 78.7547 59.2914 78.6327C59.28 78.5068 59.28 78.38 59.2914 78.2541C59.2796 78.1281 59.2796 78.0014 59.2914 77.8754C59.3461 77.6277 59.4457 77.392 59.585 77.18C59.6539 77.0736 59.7342 76.9752 59.8245 76.8863C59.9137 76.7964 60.0122 76.7161 60.1182 76.6468C60.2221 76.5755 60.3335 76.5159 60.4505 76.4691C60.5677 76.4214 60.6894 76.3852 60.8136 76.3609C61.068 76.3035 61.332 76.3035 61.5864 76.3609C61.7106 76.3852 61.8323 76.4214 61.9496 76.4691C62.0665 76.5159 62.1779 76.5755 62.2818 76.6468C62.3879 76.7161 62.4863 76.7964 62.5755 76.8863C62.9389 77.249 63.1445 77.7406 63.1473 78.2541C63.1583 78.38 63.1583 78.5067 63.1473 78.6327C63.1204 78.7547 63.0815 78.8738 63.0314 78.9882C62.9829 79.1068 62.9234 79.2207 62.8536 79.3282C62.774 79.4233 62.6861 79.5112 62.5909 79.5909C62.5017 79.6809 62.4033 79.7611 62.2973 79.8304C62.1917 79.8988 62.0805 79.9583 61.965 80.0082C61.8477 80.0559 61.7261 80.0921 61.6018 80.1164C61.4642 80.141 61.3243 80.1513 61.1846 80.1473Z" fill="#E69B38"/>
<path d="M65.6818 74.2591C65.5142 74.0684 65.3859 73.8465 65.3042 73.6062C65.2224 73.3658 65.1888 73.1117 65.2053 72.8584C65.2218 72.6051 65.2881 72.3575 65.4003 72.1298C65.5126 71.9021 65.6686 71.6987 65.8595 71.5314C66.0503 71.3638 66.2721 71.2355 66.5125 71.1537C66.7528 71.0719 67.0069 71.0383 67.2602 71.0549C67.5136 71.0714 67.7612 71.1376 67.9889 71.2499C68.2166 71.3622 68.4199 71.5182 68.5873 71.7091C68.7546 71.8992 68.8828 72.1204 68.9644 72.3601C69.0461 72.5998 69.0796 72.8533 69.0631 73.106C69.0466 73.3587 68.9804 73.6056 68.8682 73.8327C68.7561 74.0597 68.6002 74.2624 68.4095 74.4291C68.0591 74.743 67.605 74.9163 67.1345 74.9159C66.8598 74.9151 66.5883 74.8562 66.3379 74.743C66.0875 74.6298 65.8639 74.4649 65.6818 74.2591ZM71.6318 69.0277C71.4642 68.837 71.3359 68.6151 71.2542 68.3748C71.1724 68.1345 71.1388 67.8804 71.1553 67.627C71.1718 67.3737 71.2381 67.1261 71.3503 66.8984C71.4626 66.6707 71.6186 66.4674 71.8095 66.3C72.1946 65.9626 72.6975 65.7911 73.2084 65.823C73.7194 65.8548 74.1971 66.0874 74.5373 66.47C74.7048 66.6607 74.8332 66.8826 74.9149 67.1229C74.9967 67.3633 75.0303 67.6174 75.0138 67.8707C74.9973 68.124 74.931 68.3716 74.8187 68.5993C74.7065 68.827 74.5504 69.0304 74.3595 69.1977C74.0091 69.5116 73.555 69.685 73.0845 69.6845C72.8098 69.6838 72.5383 69.6248 72.2879 69.5116C72.0375 69.3984 71.8139 69.2335 71.6318 69.0277ZM77.5818 63.7964C77.4142 63.6057 77.2859 63.3838 77.2042 63.1435C77.1224 62.9031 77.0888 62.649 77.1053 62.3957C77.1218 62.1423 77.1881 61.8947 77.3003 61.667C77.4126 61.4393 77.5686 61.236 77.7595 61.0686C78.1433 60.7317 78.6449 60.5604 79.1546 60.5923C79.6643 60.6241 80.1407 60.8565 80.4795 61.2386C80.6476 61.4289 80.7765 61.6503 80.8589 61.8904C80.9413 62.1305 80.9756 62.3844 80.9598 62.6377C80.944 62.8911 80.8784 63.1388 80.7669 63.3668C80.6553 63.5947 80.4999 63.7985 80.3095 63.9664C79.9568 64.2756 79.5036 64.4459 79.0345 64.4455C78.76 64.4476 78.4883 64.3908 78.2376 64.2788C77.987 64.1668 77.7633 64.0023 77.5818 63.7964Z" fill="#E69B38"/>
<path d="M85 59.2141C84.7344 59.2274 84.4695 59.1771 84.2273 59.0673C84.1103 59.0204 83.9989 58.9608 83.895 58.8895C83.7872 58.8226 83.6885 58.7421 83.6014 58.65C83.4198 58.4723 83.2756 58.2601 83.1771 58.0259C83.0787 57.7917 83.0279 57.5402 83.0279 57.2861C83.0279 57.0321 83.0787 56.7806 83.1771 56.5464C83.2756 56.3122 83.4198 56.1 83.6014 55.9223C83.8263 55.6992 84.102 55.5341 84.4049 55.4412C84.7078 55.3483 85.0287 55.3304 85.34 55.3891C85.4645 55.416 85.5861 55.4548 85.7032 55.505C85.8201 55.5518 85.9316 55.6114 86.0355 55.6827C86.1432 55.7496 86.2419 55.8301 86.3291 55.9223C86.5106 56.1 86.6549 56.3122 86.7533 56.5464C86.8518 56.7806 86.9025 57.0321 86.9025 57.2861C86.9025 57.5402 86.8518 57.7917 86.7533 58.0259C86.6549 58.2601 86.5106 58.4723 86.3291 58.65C86.2419 58.7421 86.1432 58.8226 86.0355 58.8895C85.9316 58.9608 85.8201 59.0204 85.7032 59.0673C85.5861 59.1174 85.4645 59.1563 85.34 59.1832C85.2277 59.203 85.114 59.2133 85 59.2141Z" fill="#E69B38"/>
<path d="M36.9441 100.161C36.4357 100.131 35.9596 99.9015 35.6195 99.5223C35.2794 99.1432 35.1029 98.645 35.1282 98.1364C35.1581 97.6251 35.3897 97.1466 35.7723 96.8061C36.1548 96.4656 36.6569 96.2909 37.1682 96.3205C37.6795 96.3503 38.1579 96.582 38.4985 96.9645C38.839 97.3471 39.0137 97.8492 38.9841 98.3604C38.9531 98.8445 38.7412 99.2991 38.3905 99.6341C38.0398 99.9691 37.5758 100.16 37.0909 100.169H36.975L36.9441 100.161Z" fill="#E69B38"/>
<path d="M129.973 36.4959C129.877 36.9946 129.589 37.4358 129.172 37.7247C128.754 38.0137 128.24 38.1274 127.74 38.0414C127.239 37.9456 126.797 37.6569 126.508 37.2376C126.218 36.8183 126.106 36.3021 126.194 35.8005C126.29 35.3018 126.578 34.8606 126.995 34.5717C127.413 34.2827 127.927 34.169 128.427 34.255C128.548 34.2768 128.667 34.3078 128.783 34.3477C129.198 34.5147 129.542 34.8194 129.759 35.2106C129.976 35.6018 130.051 36.0557 129.973 36.4959Z" fill="#E69B38"/>
<path d="M117.192 36.4959C117.094 36.9936 116.806 37.4336 116.389 37.7222C115.972 38.0108 115.459 38.1253 114.959 38.0414C114.458 37.9456 114.016 37.6569 113.727 37.2376C113.438 36.8183 113.325 36.3021 113.413 35.8005C113.509 35.3018 113.797 34.8606 114.214 34.5717C114.632 34.2827 115.146 34.169 115.646 34.255C115.767 34.2768 115.886 34.3078 116.002 34.3477C116.417 34.5147 116.761 34.8194 116.978 35.2106C117.195 35.6018 117.27 36.0557 117.192 36.4959Z" fill="#E69B38"/>
<path d="M109.665 35.4682C109.758 35.7045 109.802 35.9568 109.796 36.2104C109.791 36.464 109.735 36.714 109.632 36.946C109.529 37.178 109.382 37.3873 109.198 37.5621C109.014 37.7368 108.797 37.8734 108.56 37.9641C108.324 38.056 108.071 38.1002 107.817 38.0939C107.563 38.0877 107.313 38.0312 107.081 37.9278C106.849 37.8243 106.639 37.6759 106.465 37.4912C106.291 37.3064 106.154 37.089 106.065 36.8514C105.972 36.615 105.928 36.3628 105.934 36.1091C105.939 35.8555 105.995 35.6055 106.098 35.3735C106.201 35.1416 106.348 34.9322 106.532 34.7575C106.716 34.5827 106.933 34.4461 107.17 34.3555C107.61 34.1858 108.097 34.1858 108.537 34.3555C108.794 34.4502 109.027 34.5984 109.221 34.7903C109.416 34.9821 109.567 35.2132 109.665 35.4682Z" fill="#E69B38"/>
<path d="M29.835 97.5414C29.9273 97.7783 29.9719 98.0311 29.9663 98.2853C29.9606 98.5394 29.9049 98.79 29.8023 99.0226C29.6996 99.2552 29.552 99.4652 29.368 99.6407C29.184 99.8161 28.9672 99.9535 28.73 100.045C28.2532 100.213 27.7294 100.189 27.2704 99.9767C26.8114 99.7645 26.4534 99.3814 26.2727 98.9091C26.0887 98.4316 26.1018 97.9005 26.3089 97.4326C26.5161 96.9646 26.9005 96.598 27.3777 96.4132C27.8212 96.2473 28.3097 96.2473 28.7532 96.4132C29.0026 96.5147 29.2279 96.6676 29.4143 96.862C29.6007 97.0564 29.7441 97.2879 29.835 97.5414Z" fill="#E69B38"/>
<path d="M19.9132 97.5414C20.0949 98.0211 20.08 98.5532 19.8716 99.022C19.6633 99.4908 19.2783 99.8584 18.8005 100.045C18.5625 100.134 18.3094 100.175 18.0554 100.167C17.8015 100.158 17.5519 100.099 17.3207 99.9932C17.0896 99.8877 16.8816 99.7376 16.7085 99.5516C16.5355 99.3656 16.4008 99.1472 16.3123 98.9091C16.1283 98.4316 16.1413 97.9005 16.3485 97.4326C16.5557 96.9646 16.9401 96.598 17.4173 96.4132C17.8581 96.2471 18.3442 96.2471 18.785 96.4132C19.0426 96.5101 19.2764 96.6608 19.471 96.8554C19.6656 97.0499 19.8163 97.2838 19.9132 97.5414Z" fill="#E69B38"/>
<path d="M8.18318 97.5414C8.27546 97.7783 8.32008 98.0311 8.31446 98.2852C8.30884 98.5394 8.25311 98.79 8.15045 99.0226C8.04779 99.2552 7.90023 99.4652 7.71623 99.6407C7.53222 99.8161 7.3154 99.9535 7.07818 100.045C6.59656 100.225 6.06309 100.207 5.59506 99.9938C5.12702 99.7808 4.76273 99.3906 4.58227 98.9091C4.3983 98.4316 4.41133 97.9005 4.6185 97.4326C4.82567 96.9646 5.21005 96.598 5.68727 96.4132C6.13075 96.2473 6.61925 96.2473 7.06273 96.4132C7.31935 96.5101 7.55218 96.661 7.74548 96.8556C7.93878 97.0502 8.08805 97.2841 8.18318 97.5414Z" fill="#E69B38"/>
</svg>
