<svg width="96" height="96" viewBox="0 0 96 96" fill="none" xmlns="http://www.w3.org/2000/svg">
<circle cx="48" cy="48" r="44" fill="#FEB960" stroke="white" stroke-width="8"/>
<path d="M38.4945 57.6001C41.6945 54.9335 44.2445 52.7168 46.1445 50.9501C48.0445 49.1501 49.6278 47.2835 50.8945 45.3501C52.1611 43.4168 52.7945 41.5168 52.7945 39.6501C52.7945 37.9501 52.3945 36.6168 51.5945 35.6501C50.7945 34.6835 49.5612 34.2001 47.8945 34.2001C46.2278 34.2001 44.9445 34.7668 44.0445 35.9001C43.1445 37.0001 42.6778 38.5168 42.6445 40.4501H35.8445C35.9778 36.4501 37.1611 33.4168 39.3945 31.3501C41.6611 29.2835 44.5278 28.2501 47.9945 28.2501C51.7945 28.2501 54.7112 29.2668 56.7445 31.3001C58.7778 33.3001 59.7945 35.9501 59.7945 39.2501C59.7945 41.8501 59.0945 44.3335 57.6945 46.7001C56.2945 49.0668 54.6945 51.1335 52.8945 52.9001C51.0945 54.6335 48.7445 56.7335 45.8445 59.2001H60.5945V65.0001H35.8945V59.8001L38.4945 57.6001Z" fill="white"/>
</svg>
