<svg width="152" height="152" viewBox="0 0 152 152" fill="none" xmlns="http://www.w3.org/2000/svg">
<path d="M75.81 116.444C75.5261 116.444 75.2451 116.388 74.983 116.279C74.721 116.17 74.4832 116.01 74.2832 115.808C74.0833 115.607 73.9253 115.368 73.8182 115.105C73.7112 114.842 73.6572 114.56 73.6595 114.276C73.6607 113.993 73.7176 113.712 73.8272 113.451C73.9367 113.189 74.0967 112.952 74.298 112.752C74.4993 112.552 74.738 112.394 75.0004 112.287C75.2627 112.179 75.5437 112.125 75.8273 112.126C76.3992 112.13 76.9461 112.361 77.3489 112.767C77.7517 113.173 77.9777 113.722 77.9777 114.294C77.9732 114.864 77.744 115.41 77.3398 115.812C76.9356 116.215 76.3891 116.442 75.8186 116.444H75.81ZM82.2786 113.853C82.2136 113.576 82.2044 113.288 82.2515 113.007C82.2986 112.726 82.401 112.457 82.5529 112.216C82.7048 111.975 82.903 111.767 83.1361 111.603C83.3693 111.439 83.6326 111.323 83.9109 111.262C84.1882 111.198 84.4754 111.19 84.756 111.238C85.0366 111.285 85.305 111.388 85.5458 111.54C85.7866 111.691 85.995 111.889 86.1591 112.122C86.3231 112.354 86.4396 112.617 86.5018 112.895C86.5655 113.172 86.5735 113.46 86.5253 113.741C86.4772 114.022 86.3738 114.291 86.2213 114.532C86.0687 114.773 85.87 114.981 85.6365 115.145C85.403 115.308 85.1394 115.424 84.8609 115.485C84.706 115.527 84.5462 115.547 84.3859 115.546C83.8921 115.545 83.4135 115.375 83.03 115.063C82.6465 114.752 82.3813 114.319 82.2786 113.836V113.853ZM66.7332 115.408C66.1755 115.278 65.692 114.933 65.3892 114.447C65.0863 113.961 64.9888 113.375 65.1182 112.817C65.2497 112.26 65.5958 111.778 66.0811 111.476C66.5664 111.173 67.1515 111.075 67.7091 111.202C68.2652 111.333 68.7465 111.68 69.0476 112.165C69.3487 112.651 69.445 113.236 69.3154 113.793C69.206 114.267 68.9388 114.69 68.5575 114.993C68.1763 115.296 67.7036 115.46 67.2168 115.46C67.0649 115.454 66.9141 115.431 66.7677 115.39L66.7332 115.408ZM90.5436 111.495C90.4205 111.24 90.3489 110.964 90.3331 110.681C90.3172 110.398 90.3574 110.115 90.4513 109.848C90.5452 109.58 90.6909 109.334 90.8802 109.124C91.0694 108.913 91.2984 108.742 91.5541 108.62C91.8103 108.496 92.0883 108.425 92.3721 108.41C92.6559 108.395 92.94 108.435 93.208 108.53C93.476 108.625 93.7227 108.771 93.9338 108.962C94.145 109.152 94.3166 109.382 94.4386 109.639C94.6844 110.155 94.7151 110.748 94.5241 111.287C94.333 111.827 93.9357 112.268 93.4195 112.515C93.1274 112.651 92.8091 112.721 92.4868 112.722C92.0841 112.714 91.6917 112.593 91.3543 112.373C91.0168 112.154 90.7479 111.843 90.5782 111.478L90.5436 111.495ZM58.1573 112.359C57.6428 112.106 57.2495 111.66 57.0633 111.118C56.8772 110.575 56.9134 109.981 57.1641 109.466C57.2892 109.211 57.4633 108.984 57.6765 108.796C57.8897 108.609 58.1378 108.465 58.4065 108.374C58.6752 108.282 58.9594 108.245 59.2426 108.263C59.5259 108.282 59.8027 108.356 60.0573 108.481C60.3133 108.604 60.5424 108.776 60.7312 108.988C60.9201 109.2 61.0649 109.447 61.1574 109.716C61.2498 109.984 61.2879 110.268 61.2696 110.552C61.2512 110.835 61.1767 111.112 61.0504 111.366C60.8732 111.73 60.5968 112.037 60.2531 112.25C59.9093 112.464 59.5121 112.577 59.1073 112.575C58.7886 112.566 58.4758 112.487 58.1918 112.342L58.1573 112.359ZM98.1004 107.341C97.7447 106.893 97.5813 106.323 97.6461 105.754C97.7108 105.186 97.9985 104.666 98.4459 104.31C98.8953 103.954 99.4675 103.79 100.037 103.855C100.607 103.92 101.128 104.207 101.486 104.655C101.841 105.104 102.003 105.676 101.936 106.244C101.87 106.813 101.581 107.332 101.132 107.687C100.752 107.991 100.28 108.156 99.7932 108.153C99.4724 108.147 99.1571 108.07 98.8701 107.926C98.5832 107.783 98.332 107.577 98.135 107.324L98.1004 107.341ZM50.4795 107.462C50.0355 107.101 49.7526 106.578 49.6927 106.008C49.6329 105.439 49.8008 104.868 50.16 104.422C50.5217 103.978 51.0445 103.695 51.6141 103.635C52.1837 103.576 52.7538 103.744 53.2 104.103C53.633 104.459 53.9109 104.97 53.9754 105.527C54.0398 106.084 53.8857 106.645 53.5454 107.091C53.3418 107.341 53.0851 107.543 52.7938 107.682C52.5026 107.821 52.184 107.893 51.8614 107.894C51.3749 107.898 50.9009 107.74 50.5141 107.445L50.4795 107.462ZM104.552 101.607C104.33 101.43 104.145 101.21 104.008 100.961C103.87 100.713 103.784 100.439 103.752 100.157C103.721 99.8743 103.746 99.5885 103.825 99.3157C103.905 99.0428 104.037 98.7883 104.215 98.5668C104.574 98.122 105.095 97.8377 105.663 97.7762C106.231 97.7147 106.801 97.881 107.246 98.2386C107.692 98.5963 107.978 99.1164 108.042 99.6847C108.105 100.253 107.94 100.823 107.583 101.27C107.378 101.53 107.115 101.738 106.815 101.879C106.515 102.02 106.187 102.089 105.856 102.082C105.39 102.06 104.945 101.887 104.586 101.59L104.552 101.607ZM44.0973 100.985C43.7435 100.535 43.5829 99.9627 43.6509 99.3942C43.719 98.8257 44.01 98.3076 44.46 97.9536C44.9101 97.5998 45.4823 97.4393 46.0508 97.5073C46.6192 97.5753 47.1374 97.8663 47.4914 98.3164C47.8452 98.7665 48.0057 99.3387 47.9377 99.9072C47.8697 100.476 47.5786 100.994 47.1286 101.348C46.7509 101.649 46.282 101.814 45.7986 101.814C45.4738 101.808 45.1545 101.728 44.8645 101.582C44.5745 101.435 44.3212 101.225 44.1232 100.968L44.0973 100.985ZM109.57 94.5768C109.314 94.4532 109.086 94.2805 108.898 94.0687C108.709 93.8568 108.564 93.6099 108.471 93.342C108.378 93.0742 108.339 92.7906 108.355 92.5076C108.372 92.2245 108.444 91.9474 108.568 91.6923C108.691 91.4371 108.864 91.2087 109.076 91.0203C109.288 90.8318 109.535 90.6869 109.802 90.5939C110.07 90.5009 110.354 90.4615 110.637 90.4781C110.92 90.4947 111.197 90.5668 111.452 90.6905C111.707 90.8141 111.936 90.9867 112.124 91.1986C112.313 91.4105 112.458 91.6574 112.551 91.9252C112.644 92.1931 112.683 92.4767 112.666 92.7597C112.65 93.0428 112.578 93.3198 112.454 93.575C112.276 93.9394 112 94.2466 111.657 94.4619C111.313 94.6771 110.916 94.7917 110.511 94.7927C110.192 94.7841 109.879 94.7044 109.595 94.5595L109.57 94.5768ZM39.3386 93.2727C39.2172 93.0164 39.1475 92.7387 39.1334 92.4554C39.1194 92.1722 39.1613 91.8889 39.2567 91.6219C39.3521 91.3548 39.4993 91.1091 39.6897 90.899C39.8801 90.6888 40.11 90.5181 40.3664 90.3968C40.622 90.2756 40.8991 90.206 41.1817 90.1921C41.4643 90.1781 41.7469 90.2201 42.0133 90.3156C42.2797 90.411 42.5246 90.5581 42.734 90.7484C42.9434 90.9387 43.1132 91.1685 43.2336 91.4245C43.4794 91.9411 43.5101 92.5341 43.3191 93.0733C43.128 93.6125 42.7307 94.0539 42.2145 94.3005C41.9251 94.4355 41.6098 94.5062 41.2904 94.5077C40.8813 94.5089 40.4804 94.3933 40.1347 94.1745C39.7889 93.9558 39.5128 93.6429 39.3386 93.2727ZM112.912 86.6227C112.634 86.5606 112.372 86.4441 112.14 86.2799C111.908 86.1157 111.71 85.9071 111.559 85.6661C111.408 85.4252 111.307 85.1566 111.26 84.8761C111.214 84.5956 111.223 84.3086 111.288 84.0318C111.35 83.7543 111.467 83.4919 111.631 83.2597C111.795 83.0276 112.004 82.8303 112.245 82.6793C112.486 82.5283 112.754 82.4266 113.035 82.38C113.315 82.3335 113.602 82.3431 113.879 82.4082C114.157 82.4703 114.419 82.5868 114.651 82.751C114.883 82.9152 115.081 83.1238 115.232 83.3648C115.383 83.6058 115.484 83.8743 115.531 84.1548C115.577 84.4353 115.568 84.7223 115.503 84.9991C115.404 85.4839 115.141 85.92 114.759 86.2344C114.377 86.5488 113.899 86.7225 113.404 86.7264C113.235 86.6992 113.07 86.6528 112.912 86.5882V86.6227ZM36.3936 84.6364C36.3312 84.3579 36.3245 84.0699 36.3737 83.7888C36.4229 83.5077 36.5271 83.2391 36.6804 82.9984C36.8336 82.7576 37.0329 82.5495 37.2668 82.386C37.5006 82.2225 37.7645 82.1068 38.0432 82.0455C38.3216 81.9831 38.6097 81.9763 38.8908 82.0255C39.1718 82.0747 39.4405 82.1789 39.6812 82.3322C39.9219 82.4854 40.13 82.6847 40.2935 82.9186C40.457 83.1525 40.5728 83.4163 40.6341 83.695C40.6964 83.9735 40.7032 84.2615 40.654 84.5426C40.6048 84.8237 40.5006 85.0923 40.3473 85.333C40.1941 85.5737 39.9948 85.7818 39.7609 85.9453C39.5271 86.1089 39.2632 86.2246 38.9845 86.2859C38.8343 86.3197 38.6808 86.3371 38.5268 86.3377C38.0301 86.3414 37.5473 86.1745 37.1589 85.8648C36.7706 85.5551 36.5005 85.1214 36.3936 84.6364ZM112.186 75.9223C112.186 75.3497 112.414 74.8005 112.819 74.3956C113.224 73.9907 113.773 73.7632 114.345 73.7632C114.918 73.7632 115.467 73.9907 115.872 74.3956C116.277 74.8005 116.505 75.3497 116.505 75.9223C116.505 76.4949 116.277 77.0441 115.872 77.449C115.467 77.8539 114.918 78.0814 114.345 78.0814C113.773 78.0814 113.224 77.8539 112.819 77.449C112.414 77.0441 112.186 76.4949 112.186 75.9223ZM37.6027 77.7273C37.3192 77.725 37.0389 77.6669 36.7778 77.5563C36.5167 77.4457 36.2799 77.2848 36.081 77.0827C35.8822 76.8806 35.725 76.6413 35.6186 76.3785C35.5122 76.1157 35.4586 75.8344 35.4609 75.5509C35.4632 75.2674 35.5212 74.9871 35.6318 74.726C35.7424 74.4649 35.9034 74.2281 36.1055 74.0292C36.3076 73.8304 36.5469 73.6732 36.8097 73.5668C37.0725 73.4604 37.3537 73.4068 37.6373 73.4091C38.2092 73.4159 38.7552 73.6485 39.1564 74.0562C39.5576 74.4638 39.7814 75.0135 39.7791 75.5855C39.7745 76.1551 39.545 76.6998 39.1406 77.101C38.7362 77.5022 38.1896 77.7273 37.62 77.7273H37.6027ZM111.409 68.4605C111.346 68.1801 111.339 67.89 111.39 67.6071C111.44 67.3242 111.546 67.0541 111.702 66.8128C111.858 66.5715 112.061 66.3638 112.298 66.2018C112.536 66.0398 112.803 65.9269 113.085 65.8695C113.364 65.8062 113.654 65.7992 113.936 65.849C114.219 65.8988 114.488 66.0043 114.73 66.1595C114.971 66.3147 115.179 66.5164 115.341 66.7528C115.503 66.9892 115.617 67.2555 115.675 67.5364C115.737 67.8166 115.743 68.1064 115.692 68.3889C115.642 68.6714 115.535 68.941 115.379 69.182C115.223 69.423 115.021 69.6307 114.784 69.793C114.548 69.9552 114.281 70.0689 114 70.1273C113.854 70.1443 113.706 70.1443 113.56 70.1273C113.064 70.1383 112.58 69.9787 112.189 69.6752C111.797 69.3717 111.522 68.9428 111.409 68.4605ZM38.1468 69.1341C37.5923 69.0008 37.113 68.6535 36.8137 68.1681C36.5143 67.6827 36.4192 67.0985 36.5491 66.5432C36.6141 66.268 36.7327 66.0084 36.8981 65.7791C37.0635 65.5498 37.2726 65.3554 37.5132 65.207C37.7539 65.0586 38.0214 64.9592 38.3006 64.9143C38.5797 64.8694 38.8649 64.88 39.14 64.9455C39.6945 65.0788 40.1737 65.426 40.4731 65.9115C40.7724 66.3969 40.8676 66.981 40.7377 67.5364C40.6251 68.0084 40.3568 68.4287 39.9761 68.7296C39.5953 69.0304 39.1243 69.1942 38.6391 69.1945C38.476 69.1938 38.3137 69.1735 38.1554 69.1341H38.1468ZM108.853 60.7482C108.731 60.4893 108.662 60.2089 108.65 59.9232C108.637 59.6375 108.682 59.3522 108.781 59.0838C108.88 58.8154 109.031 58.5694 109.225 58.3599C109.42 58.1505 109.655 57.9818 109.915 57.8636C110.172 57.7433 110.451 57.675 110.735 57.6629C111.018 57.6507 111.302 57.6949 111.568 57.7929C111.835 57.8908 112.079 58.0406 112.288 58.2336C112.496 58.4266 112.664 58.659 112.782 58.9173C112.901 59.1741 112.968 59.4518 112.98 59.7347C112.991 60.0175 112.947 60.2998 112.849 60.5654C112.751 60.8309 112.602 61.0746 112.409 61.2823C112.217 61.4901 111.986 61.6578 111.729 61.7759C111.445 61.9109 111.136 61.9816 110.822 61.9832C110.412 61.9828 110.01 61.8668 109.664 61.6483C109.317 61.4298 109.039 61.1178 108.861 60.7482H108.853ZM40.6254 60.8605C40.3707 60.7353 40.143 60.5612 39.9556 60.348C39.7682 60.1348 39.6247 59.8867 39.5332 59.618C39.4418 59.3493 39.4042 59.0652 39.4227 58.7819C39.4412 58.4987 39.5153 58.2218 39.6409 57.9673C39.8984 57.4574 40.3468 57.0697 40.8885 56.8886C41.4303 56.7075 42.0217 56.7475 42.5341 57C43.0471 57.2543 43.4382 57.7019 43.6212 58.2445C43.8042 58.7871 43.7642 59.3801 43.51 59.8932C43.3322 60.2543 43.0566 60.5582 42.7146 60.7704C42.3726 60.9827 41.9779 61.0946 41.5754 61.0936C41.233 61.0984 40.8948 61.0183 40.5909 60.8605H40.6254ZM104.647 53.7959C104.473 53.572 104.344 53.3159 104.269 53.0423C104.194 52.7687 104.173 52.483 104.209 52.2015C104.244 51.9199 104.334 51.6481 104.475 51.4016C104.615 51.155 104.803 50.9385 105.027 50.7645C105.481 50.4158 106.055 50.261 106.623 50.3338C107.191 50.4066 107.707 50.7012 108.058 51.1532C108.407 51.6074 108.562 52.181 108.489 52.749C108.416 53.317 108.122 53.833 107.67 54.1845C107.294 54.4757 106.832 54.6337 106.357 54.6336C106.026 54.6353 105.7 54.5606 105.404 54.4153C105.107 54.2699 104.848 54.058 104.647 53.7959ZM44.9091 53.3555C44.4663 52.9925 44.1851 52.4691 44.1269 51.8996C44.0686 51.33 44.238 50.7605 44.5982 50.3155C44.7778 50.0959 44.999 49.9139 45.2491 49.7798C45.4992 49.6458 45.7732 49.5623 46.0555 49.5343C46.3379 49.5062 46.6229 49.534 46.8945 49.6162C47.1661 49.6984 47.4188 49.8333 47.6382 50.0132C47.8587 50.1922 48.0416 50.4131 48.1763 50.6632C48.311 50.9132 48.3949 51.1875 48.423 51.4702C48.4511 51.7528 48.4229 52.0382 48.3401 52.31C48.2573 52.5817 48.1214 52.8343 47.9404 53.0532C47.7382 53.2995 47.4838 53.4978 47.1955 53.6337C46.9072 53.7696 46.5923 53.8398 46.2736 53.8391C45.7762 53.8426 45.2933 53.6714 44.9091 53.3555ZM99.0073 47.9577C98.7883 47.7774 98.607 47.5558 98.4738 47.3054C98.3405 47.055 98.2579 46.7809 98.2306 46.4986C98.2034 46.2163 98.232 45.9313 98.3148 45.6601C98.3977 45.3888 98.5332 45.1366 98.7136 44.9177C98.8932 44.6978 99.1146 44.5156 99.365 44.3817C99.6154 44.2478 99.8898 44.1648 100.172 44.1375C100.455 44.1102 100.74 44.1391 101.012 44.2227C101.283 44.3062 101.535 44.4426 101.754 44.6241C101.973 44.8044 102.154 45.026 102.287 45.2764C102.42 45.5268 102.503 45.8009 102.53 46.0833C102.558 46.3656 102.529 46.6505 102.446 46.9217C102.363 47.193 102.228 47.4452 102.047 47.6641C101.845 47.91 101.59 48.1079 101.302 48.2438C101.014 48.3797 100.699 48.4501 100.38 48.45C99.8706 48.4563 99.375 48.2819 98.9814 47.9577H99.0073ZM50.73 46.9905C50.5553 46.7671 50.4263 46.5114 50.3504 46.2382C50.2745 45.9649 50.2532 45.6793 50.2877 45.3978C50.3222 45.1163 50.4118 44.8444 50.5514 44.5975C50.691 44.3507 50.8779 44.1337 51.1013 43.9591C51.3248 43.7844 51.5804 43.6554 51.8537 43.5795C52.1269 43.5036 52.4125 43.4823 52.694 43.5168C52.9755 43.5513 53.2474 43.6409 53.4943 43.7805C53.7411 43.9201 53.9581 44.107 54.1327 44.3305C54.4833 44.7825 54.6411 45.3548 54.5715 45.9226C54.5019 46.4905 54.2107 47.0078 53.7613 47.3618C53.3803 47.6562 52.9129 47.8171 52.4314 47.8195C52.0989 47.8243 51.77 47.7518 51.4703 47.608C51.1706 47.4641 50.9083 47.2528 50.7041 46.9905H50.73ZM92.1845 43.5359C91.9239 43.4101 91.6911 43.2333 91.4999 43.0161C91.3086 42.7989 91.1628 42.5456 91.0711 42.2711C90.9793 41.9966 90.9435 41.7065 90.9656 41.418C90.9877 41.1294 91.0674 40.8482 91.2 40.5909C91.3294 40.3349 91.5088 40.1074 91.7275 39.9218C91.9462 39.7362 92.1998 39.5962 92.4734 39.5101C92.7471 39.424 93.0351 39.3935 93.3207 39.4204C93.6063 39.4473 93.8836 39.5311 94.1364 39.6668C94.3904 39.7926 94.6172 39.9674 94.8034 40.1811C94.9897 40.3949 95.1319 40.6433 95.2218 40.9122C95.3117 41.1811 95.3475 41.4651 95.3273 41.7479C95.307 42.0307 95.231 42.3067 95.1036 42.56C94.9246 42.9195 94.6485 43.2216 94.3066 43.4323C93.9647 43.6429 93.5706 43.7536 93.1691 43.7518C92.8191 43.7597 92.4724 43.6826 92.1586 43.5273L92.1845 43.5359ZM57.7945 42.0677C57.6736 41.8115 57.6045 41.534 57.5911 41.251C57.5778 40.968 57.6205 40.6851 57.7168 40.4187C57.8131 40.1523 57.9611 39.9075 58.1523 39.6984C58.3435 39.4893 58.5741 39.3201 58.8309 39.2005C59.0871 39.0795 59.3647 39.0104 59.6477 38.997C59.9306 38.9837 60.2135 39.0264 60.4799 39.1227C60.7464 39.219 60.9912 39.367 61.2002 39.5582C61.4093 39.7494 61.5785 39.98 61.6982 40.2368C61.8193 40.4936 61.8886 40.7718 61.902 41.0555C61.9155 41.3391 61.8728 41.6226 61.7766 41.8898C61.6803 42.1569 61.5323 42.4024 61.341 42.6123C61.1497 42.8221 60.9189 42.9922 60.6618 43.1127C60.3751 43.246 60.0625 43.3138 59.7463 43.3114C59.3361 43.3128 58.934 43.1963 58.588 42.9759C58.242 42.7554 57.9666 42.4402 57.7945 42.0677ZM84.5673 40.7291C84.0131 40.5959 83.5345 40.2483 83.2366 39.7625C82.9386 39.2767 82.8457 38.6925 82.9782 38.1382C83.1135 37.5849 83.4612 37.1071 83.946 36.8081C84.4309 36.5091 85.0139 36.4129 85.5691 36.5405C86.1208 36.6777 86.5965 37.0261 86.8938 37.5108C87.191 37.9954 87.286 38.5774 87.1582 39.1314C87.0425 39.601 86.7732 40.0186 86.3929 40.3175C86.0126 40.6164 85.5432 40.7795 85.0595 40.7809C84.8796 40.7866 84.6996 40.7692 84.5241 40.7291H84.5673ZM65.8004 38.8636C65.737 38.5845 65.7297 38.2956 65.7789 38.0136C65.8281 37.7316 65.933 37.4622 66.0873 37.2211C66.2416 36.98 66.4423 36.772 66.6777 36.6092C66.9131 36.4464 67.1786 36.332 67.4586 36.2727C67.7377 36.2093 68.0267 36.202 68.3087 36.2512C68.5907 36.3004 68.86 36.4053 69.1011 36.5596C69.3422 36.7139 69.5502 36.9146 69.713 37.15C69.8759 37.3854 69.9902 37.6509 70.0495 37.9309C70.113 38.21 70.1203 38.499 70.0711 38.781C70.0218 39.0629 69.917 39.3323 69.7627 39.5734C69.6084 39.8145 69.4077 40.0225 69.1723 40.1853C68.9368 40.3482 68.6714 40.4625 68.3913 40.5218C68.2393 40.5389 68.0857 40.5389 67.9336 40.5218C67.4425 40.5293 66.9634 40.3691 66.5756 40.0676C66.1878 39.7662 65.9143 39.3415 65.8004 38.8636ZM76.4577 39.7273C75.8858 39.7182 75.3407 39.4834 74.9411 39.0741C74.5415 38.6649 74.3199 38.1142 74.3245 37.5423C74.3336 36.9689 74.5696 36.4224 74.9807 36.0226C75.3919 35.6228 75.9447 35.4022 76.5182 35.4091C76.8021 35.4125 77.0825 35.472 77.3432 35.5843C77.604 35.6966 77.8399 35.8594 78.0374 36.0633C78.2349 36.2673 78.3901 36.5083 78.494 36.7725C78.5979 37.0367 78.6484 37.3189 78.6427 37.6027C78.6359 38.1701 78.4051 38.7117 78.0007 39.1097C77.5963 39.5076 77.051 39.7296 76.4836 39.7273H76.4577ZM73.8668 81.1818C73.8668 80.6092 74.0943 80.06 74.4992 79.6551C74.9041 79.2502 75.4533 79.0227 76.0259 79.0227C76.5985 79.0227 77.1477 79.2502 77.5526 79.6551C77.9575 80.06 78.185 80.6092 78.185 81.1818C78.185 81.7544 77.9575 82.3036 77.5526 82.7085C77.1477 83.1134 76.5985 83.3409 76.0259 83.3409C75.7387 83.3467 75.4533 83.295 75.1864 83.1891C74.9194 83.0832 74.6763 82.9251 74.4712 82.724C74.2661 82.5229 74.1032 82.283 73.992 82.0182C73.8808 81.7534 73.8236 81.469 73.8236 81.1818H73.8668ZM80.3182 80.6205C80.0474 80.1185 79.9862 79.5297 80.148 78.9828C80.3098 78.4359 80.6815 77.9752 81.1818 77.7014C81.6838 77.4306 82.2725 77.3694 82.8195 77.5312C83.3664 77.693 83.8271 78.0647 84.1009 78.565C84.3694 79.0674 84.4293 79.6554 84.2677 80.2016C84.1061 80.7479 83.7359 81.2086 83.2373 81.4841C82.9267 81.6508 82.5793 81.7369 82.2268 81.7345C81.8378 81.738 81.4551 81.6363 81.1191 81.4402C80.7832 81.2441 80.5064 80.9609 80.3182 80.6205ZM66.6295 80.1973C66.1714 79.8537 65.8686 79.3422 65.7876 78.7753C65.7066 78.2085 65.8541 77.6326 66.1977 77.1745C66.5429 76.7159 67.0558 76.4128 67.6241 76.3319C68.1924 76.2509 68.7696 76.3987 69.2291 76.7427C69.6858 77.0876 69.987 77.5997 70.0663 78.1665C70.1457 78.7333 69.9968 79.3084 69.6523 79.7655C69.4521 80.0346 69.1915 80.253 68.8915 80.403C68.5915 80.553 68.2604 80.6304 67.925 80.6291C67.4606 80.6285 67.0089 80.4769 66.6382 80.1973H66.6295ZM87.2273 75.43C86.9661 75.3125 86.7308 75.1445 86.5349 74.9356C86.339 74.7267 86.1865 74.481 86.0861 74.2128C85.9857 73.9446 85.9395 73.6591 85.9501 73.373C85.9606 73.0868 86.0278 72.8055 86.1477 72.5455C86.3944 72.0271 86.8367 71.6278 87.3775 71.4351C87.9182 71.2425 88.5134 71.2722 89.0323 71.5177C89.5484 71.7645 89.9461 72.2053 90.1386 72.744C90.3311 73.2827 90.3028 73.8757 90.06 74.3936C89.8833 74.7662 89.6044 75.0808 89.2558 75.301C88.9072 75.5212 88.5032 75.6378 88.0909 75.6373C87.7917 75.6293 87.4975 75.5587 87.2273 75.43ZM61.0332 72.0877C60.8758 71.538 60.9429 70.9483 61.2198 70.448C61.4966 69.9477 61.9606 69.5777 62.51 69.4191C62.7822 69.3385 63.0676 69.3126 63.3498 69.3429C63.6321 69.3732 63.9055 69.4591 64.1544 69.5955C64.4033 69.732 64.6227 69.9164 64.8 70.1381C64.9773 70.3599 65.1089 70.6145 65.1873 70.8873C65.3449 71.4381 65.278 72.029 65.0013 72.5306C64.7245 73.0323 64.2604 73.404 63.7104 73.5645C63.5171 73.6222 63.3163 73.6513 63.1145 73.6509C62.6451 73.6508 62.1884 73.4984 61.8131 73.2165C61.4378 72.9346 61.1641 72.5385 61.0332 72.0877ZM86.9941 65.4809C86.939 65.2001 86.9401 64.9112 86.9972 64.6308C87.0544 64.3504 87.1665 64.0841 87.327 63.8473C87.4876 63.6104 87.6935 63.4077 87.9328 63.2508C88.1721 63.0939 88.4401 62.986 88.7214 62.9332C89.2823 62.8209 89.8649 62.9349 90.3421 63.2504C90.8194 63.5659 91.1526 64.0572 91.2691 64.6173C91.3335 64.8983 91.3407 65.1893 91.2903 65.4732C91.24 65.757 91.1331 66.0278 90.976 66.2695C90.8189 66.5112 90.6148 66.7189 90.3758 66.8801C90.1369 67.0414 89.8679 67.1529 89.585 67.2082C89.4416 67.2252 89.2966 67.2252 89.1532 67.2082C88.6485 67.2167 88.1566 67.0488 87.7625 66.7335C87.3683 66.4182 87.0966 65.9752 86.9941 65.4809ZM62.6827 65.0232C62.4174 64.9235 62.1744 64.7723 61.9677 64.5784C61.761 64.3844 61.5947 64.1516 61.4783 63.8931C61.3619 63.6347 61.2978 63.3558 61.2896 63.0725C61.2814 62.7892 61.3292 62.507 61.4304 62.2423C61.5301 61.977 61.6813 61.734 61.8752 61.5273C62.0692 61.3206 62.3021 61.1542 62.5605 61.0379C62.8189 60.9215 63.0978 60.8574 63.3811 60.8491C63.6645 60.8409 63.9466 60.8888 64.2113 60.99C64.7458 61.1933 65.1777 61.6002 65.4125 62.1215C65.6472 62.6429 65.6656 63.236 65.4636 63.7709C65.308 64.1813 65.0315 64.5347 64.6706 64.7846C64.3098 65.0344 63.8816 65.1688 63.4427 65.17C63.1822 65.1716 62.9239 65.1217 62.6827 65.0232ZM83.41 59.3318C83.1975 59.1449 83.024 58.918 82.8994 58.6639C82.7749 58.4098 82.7016 58.1337 82.684 57.8513C82.6663 57.5688 82.7046 57.2857 82.7966 57.0181C82.8886 56.7505 83.0324 56.5037 83.22 56.2918C83.4102 56.0789 83.6408 55.9059 83.8984 55.7828C84.1559 55.6596 84.4354 55.5887 84.7205 55.5743C85.0056 55.5598 85.2908 55.602 85.5595 55.6985C85.8282 55.795 86.0751 55.9438 86.2859 56.1364C86.4986 56.324 86.6723 56.5517 86.797 56.8065C86.9217 57.0613 86.995 57.3382 87.0126 57.6213C87.0303 57.9044 86.9919 58.1883 86.8998 58.4566C86.8078 58.7249 86.6637 58.9724 86.4759 59.185C86.2719 59.4138 86.0218 59.5968 85.7419 59.7219C85.462 59.8469 85.1588 59.9112 84.8523 59.9105C84.322 59.9007 83.8142 59.6945 83.4273 59.3318H83.41ZM67.0009 57.6045C66.6972 57.1195 66.5975 56.5341 66.7237 55.976C66.8499 55.4178 67.1917 54.9322 67.6745 54.625C68.1585 54.3205 68.7432 54.2195 69.3012 54.344C69.8593 54.4686 70.3455 54.8086 70.6541 55.29C70.9523 55.7761 71.0461 56.3604 70.9151 56.9154C70.784 57.4704 70.4387 57.951 69.9545 58.2523C69.6096 58.4744 69.2075 58.5914 68.7973 58.5891C68.4354 58.5868 68.0798 58.4939 67.763 58.3189C67.4462 58.1439 67.1783 57.8924 66.9836 57.5873L67.0009 57.6045ZM76.8636 56.5423C76.5809 56.5215 76.3051 56.4451 76.0521 56.3174C75.799 56.1897 75.5737 56.0132 75.3891 55.7981C75.2045 55.583 75.0642 55.3335 74.9764 55.064C74.8886 54.7945 74.8549 54.5103 74.8773 54.2277C74.8991 53.9447 74.9765 53.6687 75.1051 53.4156C75.2338 53.1624 75.4111 52.9372 75.6269 52.7527C75.8426 52.5682 76.0927 52.4281 76.3627 52.3403C76.6327 52.2526 76.9174 52.2189 77.2004 52.2414C77.7706 52.2876 78.2991 52.5582 78.6699 52.9938C79.0407 53.4294 79.2235 53.9943 79.1782 54.5645C79.1368 55.1045 78.8933 55.609 78.4963 55.9772C78.0992 56.3454 77.5779 56.5503 77.0363 56.5509H76.8636V56.5423ZM58.5545 103.636C58.3087 103.494 58.0933 103.305 57.921 103.079C57.7487 102.854 57.6227 102.596 57.5505 102.321C57.4782 102.047 57.461 101.761 57.5 101.479C57.5389 101.198 57.6331 100.927 57.7773 100.683C58.0688 100.189 58.5443 99.8305 59.0996 99.6864C59.6548 99.5423 60.2445 99.6242 60.7395 99.9141C61.2329 100.204 61.591 100.678 61.7352 101.232C61.8793 101.786 61.7976 102.374 61.5082 102.868C61.3099 103.196 61.0276 103.465 60.6905 103.647C60.3535 103.829 59.9738 103.918 59.5909 103.904C59.2283 103.904 58.8716 103.812 58.5545 103.636ZM91.865 102.185C91.7205 101.941 91.6257 101.671 91.5862 101.39C91.5466 101.109 91.5631 100.823 91.6345 100.549C91.7059 100.274 91.831 100.016 92.0025 99.7904C92.174 99.5644 92.3885 99.3746 92.6336 99.2318C93.1262 98.9416 93.7139 98.8586 94.2676 99.0011C94.8213 99.1436 95.2959 99.4999 95.5873 99.9918C95.7321 100.235 95.8274 100.505 95.8676 100.786C95.9077 101.066 95.8921 101.352 95.8214 101.627C95.7508 101.901 95.6266 102.159 95.456 102.385C95.2854 102.612 95.0717 102.802 94.8273 102.945C94.4805 103.152 94.0823 103.257 93.6786 103.248C93.3084 103.237 92.9471 103.132 92.6294 102.941C92.3118 102.75 92.0486 102.481 91.865 102.16V102.185ZM63.365 96.4941C62.9756 96.0732 62.7687 95.5153 62.7898 94.9423C62.8108 94.3693 63.058 93.828 63.4773 93.4368C63.8967 93.0479 64.4532 92.8413 65.0248 92.8624C65.5964 92.8834 66.1362 93.1304 66.5259 93.5491C66.9153 93.9699 67.1221 94.5279 67.1011 95.1009C67.0801 95.6739 66.8329 96.2152 66.4136 96.6064C66.0004 96.9869 65.4551 97.1913 64.8936 97.1764C64.6086 97.1643 64.3289 97.0955 64.0708 96.9739C63.8128 96.8523 63.5816 96.6803 63.3909 96.4682L63.365 96.4941ZM86.8645 96.0277C86.6524 95.8395 86.4794 95.6113 86.3555 95.3562C86.2316 95.1011 86.1591 94.8241 86.1423 94.541C86.1254 94.2579 86.1645 93.9742 86.2573 93.7062C86.3502 93.4382 86.4949 93.1912 86.6832 92.9791C87.0619 92.552 87.5943 92.2923 88.164 92.2567C88.7336 92.2211 89.2942 92.4125 89.7232 92.7891C89.9366 92.9753 90.111 93.2021 90.2363 93.4562C90.3615 93.7103 90.4351 93.9867 90.4528 94.2694C90.4704 94.5522 90.4319 94.8356 90.3392 95.1033C90.2466 95.371 90.1018 95.6177 89.9132 95.8291C89.7062 96.0685 89.4484 96.2587 89.1585 96.3857C88.8686 96.5127 88.554 96.5733 88.2377 96.5632C87.7371 96.5381 87.2607 96.3397 86.8904 96.0018L86.8645 96.0277ZM70.2223 91.2432C70.1335 90.9677 70.101 90.6772 70.1267 90.3889C70.1524 90.1007 70.2358 89.8205 70.372 89.5651C70.5081 89.3097 70.6943 89.0843 70.9193 88.9022C71.1443 88.7202 71.4036 88.5853 71.6818 88.5055C72.227 88.3318 72.8187 88.3815 73.3272 88.6439C73.8357 88.9062 74.2192 89.3596 74.3936 89.9045C74.5673 90.4497 74.5175 91.0415 74.2552 91.55C73.9929 92.0584 73.5395 92.442 72.9945 92.6164C72.7666 92.6929 72.5267 92.7281 72.2863 92.72C71.8317 92.7161 71.3898 92.5686 71.0238 92.2988C70.6578 92.029 70.3864 91.6505 70.2482 91.2173L70.2223 91.2432ZM80.3182 92.4091C79.77 92.2683 79.2991 91.9179 79.0068 91.4333C78.7144 90.9487 78.624 90.3687 78.755 89.8182C78.8977 89.2717 79.2489 88.8028 79.7332 88.5122C80.2176 88.2216 80.7965 88.1323 81.3459 88.2636C81.894 88.4045 82.3649 88.7549 82.6573 89.2394C82.9497 89.724 83.0401 90.304 82.9091 90.8545C82.7748 91.3161 82.4904 91.7196 82.1008 92.0012C81.7113 92.2827 81.239 92.4263 80.7586 92.4091C80.6121 92.4229 80.4647 92.4229 80.3182 92.4091ZM108.127 113.326C108.127 113.899 107.9 114.448 107.495 114.853C107.09 115.258 106.541 115.485 105.968 115.485C105.396 115.485 104.846 115.258 104.441 114.853C104.037 114.448 103.809 113.899 103.809 113.326C103.809 112.754 104.037 112.205 104.441 111.8C104.846 111.395 105.396 111.167 105.968 111.167C106.529 111.176 107.064 111.403 107.461 111.799C107.857 112.196 108.084 112.731 108.093 113.292L108.127 113.326ZM118.957 116.22C118.957 116.792 118.73 117.341 118.325 117.746C117.92 118.151 117.371 118.379 116.798 118.379C116.226 118.379 115.676 118.151 115.271 117.746C114.867 117.341 114.639 116.792 114.639 116.22C114.639 115.647 114.867 115.098 115.271 114.693C115.676 114.288 116.226 114.06 116.798 114.06C117.359 114.069 117.894 114.296 118.291 114.693C118.687 115.089 118.914 115.624 118.923 116.185L118.957 116.22ZM130.478 112.16C130.478 112.733 130.251 113.282 129.846 113.687C129.441 114.092 128.892 114.32 128.319 114.32C127.746 114.32 127.197 114.092 126.792 113.687C126.387 113.282 126.16 112.733 126.16 112.16C126.16 111.588 126.387 111.039 126.792 110.634C127.197 110.229 127.746 110.001 128.319 110.001C128.874 110.019 129.4 110.25 129.789 110.645C130.179 111.041 130.4 111.571 130.409 112.126L130.478 112.16ZM27.3168 78.5909C27.2404 78.0244 27.3908 77.4507 27.7353 76.9946C28.0798 76.5384 28.5906 76.2369 29.1563 76.1555C29.7232 76.0767 30.2982 76.2262 30.7548 76.5711C31.2115 76.9161 31.5126 77.4282 31.5918 77.995C31.632 78.2763 31.6163 78.5629 31.5456 78.8381C31.4748 79.1134 31.3504 79.3719 31.1795 79.599C31.0086 79.8261 30.7946 80.0172 30.5496 80.1613C30.3047 80.3055 30.0337 80.3999 29.7523 80.4391H29.45C28.9313 80.4401 28.4298 80.2536 28.0378 79.9139C27.6458 79.5743 27.3897 79.1044 27.3168 78.5909ZM18.6804 79.8691C18.1139 79.7938 17.6003 79.497 17.2523 79.0437C16.9042 78.5905 16.7501 78.0177 16.8236 77.4509C16.8598 77.1699 16.9511 76.8988 17.0924 76.6533C17.2337 76.4077 17.4221 76.1924 17.6468 76.0199C17.8715 75.8474 18.1281 75.7209 18.4018 75.6478C18.6755 75.5748 18.961 75.5565 19.2418 75.5941C19.5232 75.6313 19.7944 75.7236 20.0401 75.8658C20.2857 76.008 20.5009 76.1971 20.6734 76.4225C20.8458 76.6479 20.9721 76.9051 21.0451 77.1794C21.1181 77.4536 21.1363 77.7396 21.0986 78.0209C21.0212 78.5247 20.7681 78.9849 20.384 79.32C19.9999 79.6551 19.5096 79.8435 19 79.8518C18.8903 79.8575 18.7803 79.8517 18.6718 79.8345L18.6804 79.8691ZM10.3636 73.5905C9.80911 73.4572 9.32986 73.1099 9.03051 72.6245C8.73117 72.139 8.63604 71.5549 8.76589 70.9995C8.82992 70.7236 8.94784 70.463 9.11287 70.2328C9.27789 70.0026 9.48678 69.8072 9.72753 69.6579C9.96828 69.5087 10.2362 69.4085 10.5158 69.363C10.7954 69.3176 11.0812 69.3278 11.3568 69.3932C11.9101 69.5285 12.3879 69.8762 12.6869 70.361C12.9859 70.8459 13.082 71.4289 12.9545 71.9841C12.8406 72.4554 12.5719 72.8748 12.1914 73.1754C11.811 73.476 11.3408 73.6404 10.8559 73.6423C10.6903 73.6456 10.5249 73.6282 10.3636 73.5905ZM3.51499 67.2686C2.96047 67.1353 2.48123 66.7881 2.18188 66.3026C1.88253 65.8172 1.7874 65.2331 1.91726 64.6777C1.98129 64.4018 2.0992 64.1412 2.26423 63.911C2.42926 63.6808 2.63815 63.4854 2.8789 63.3361C3.11965 63.1869 3.38752 63.0866 3.66712 63.0412C3.94672 62.9958 4.23254 63.006 4.50817 63.0714C5.06148 63.2067 5.53929 63.5544 5.83828 64.0392C6.13727 64.5241 6.2334 65.1071 6.10589 65.6623C6.00067 66.1401 5.73687 66.5683 5.35741 66.8772C4.97795 67.1861 4.50515 67.3575 4.01589 67.3636C3.84554 67.3536 3.67718 67.3217 3.51499 67.2686ZM35.72 76.5873C35.4124 76.105 35.3087 75.5204 35.4318 74.9617C35.5548 74.4031 35.8946 73.9161 36.3764 73.6077C36.8586 73.3001 37.4433 73.1965 38.0019 73.3195C38.5605 73.4426 39.0475 73.7823 39.3559 74.2641C39.5093 74.5026 39.6141 74.769 39.6642 75.0481C39.7142 75.3272 39.7086 75.6135 39.6476 75.8904C39.5866 76.1673 39.4714 76.4295 39.3087 76.6617C39.146 76.894 38.939 77.0917 38.6995 77.2436C38.3534 77.4631 37.9521 77.5798 37.5423 77.5805C37.1794 77.5821 36.822 77.4919 36.5034 77.3182C36.1848 77.1446 35.9153 76.8931 35.72 76.5873ZM138.847 105.77C138.847 106.342 138.619 106.891 138.214 107.296C137.81 107.701 137.26 107.929 136.688 107.929C136.115 107.929 135.566 107.701 135.161 107.296C134.756 106.891 134.529 106.342 134.529 105.77C134.529 105.197 134.756 104.648 135.161 104.243C135.566 103.838 136.115 103.61 136.688 103.61C136.971 103.61 137.252 103.666 137.514 103.775C137.776 103.883 138.014 104.042 138.214 104.243C138.415 104.443 138.574 104.681 138.682 104.943C138.791 105.205 138.847 105.486 138.847 105.77ZM149.21 103.23C149.21 103.803 148.983 104.352 148.578 104.757C148.173 105.162 147.624 105.39 147.051 105.39C146.479 105.39 145.93 105.162 145.525 104.757C145.12 104.352 144.892 103.803 144.892 103.23C144.892 102.658 145.12 102.109 145.525 101.704C145.93 101.299 146.479 101.071 147.051 101.071C147.336 101.069 147.619 101.123 147.883 101.231C148.147 101.338 148.387 101.497 148.589 101.698C148.792 101.898 148.952 102.137 149.062 102.4C149.171 102.663 149.228 102.945 149.228 103.23H149.21Z" fill="#E69B38"/>
</svg>
