<svg width="136" height="136" viewBox="0 0 136 136" fill="none" xmlns="http://www.w3.org/2000/svg">
<path d="M34.1236 29.8891C33.8697 29.8901 33.618 29.8409 33.3832 29.7441C33.1483 29.6474 32.9349 29.5052 32.7554 29.3256C32.5758 29.146 32.4335 28.9326 32.3368 28.6978C32.2401 28.4629 32.1908 28.2113 32.1918 27.9573C32.1901 27.7032 32.2391 27.4514 32.336 27.2165C32.4328 26.9817 32.5756 26.7685 32.7559 26.5896C33.1237 26.2395 33.612 26.0442 34.1198 26.0442C34.6275 26.0442 35.1159 26.2395 35.4836 26.5896C35.665 26.7681 35.809 26.9811 35.9072 27.2159C36.0053 27.4507 36.0557 27.7028 36.0555 27.9573C36.0534 28.469 35.8492 28.9592 35.4874 29.321C35.1255 29.6829 34.6354 29.8871 34.1236 29.8891ZM41.6345 29.8891C42.1449 29.885 42.6331 29.68 42.9933 29.3183C43.3535 28.9567 43.5566 28.4677 43.5586 27.9573C43.5586 27.4449 43.3551 26.9536 42.9928 26.5913C42.6305 26.229 42.1392 26.0255 41.6268 26.0255C41.1145 26.0255 40.6231 26.229 40.2608 26.5913C39.8985 26.9536 39.695 27.4449 39.695 27.9573C39.695 28.4696 39.8985 28.961 40.2608 29.3233C40.6231 29.6856 41.1145 29.8891 41.6268 29.8891H41.6345ZM49.13 29.8891C49.384 29.8901 49.6356 29.8409 49.8705 29.7441C50.1053 29.6474 50.3187 29.5052 50.4983 29.3256C50.6779 29.146 50.8201 28.9326 50.9169 28.6978C51.0136 28.4629 51.0628 28.2113 51.0618 27.9573C51.0618 27.4449 50.8583 26.9536 50.496 26.5913C50.1337 26.229 49.6424 26.0255 49.13 26.0255C48.6177 26.0255 48.1263 26.229 47.764 26.5913C47.4017 26.9536 47.1982 27.4449 47.1982 27.9573C47.1982 28.4696 47.4017 28.961 47.764 29.3233C48.1263 29.6856 48.6177 29.8891 49.13 29.8891ZM56.6332 29.8891C56.8872 29.8901 57.1388 29.8409 57.3737 29.7441C57.6085 29.6474 57.8219 29.5052 58.0015 29.3256C58.181 29.146 58.3233 28.9326 58.42 28.6978C58.5168 28.4629 58.566 28.2113 58.565 27.9573C58.5589 27.4442 58.3513 26.954 57.987 26.5926C57.6227 26.2311 57.1309 26.0275 56.6177 26.0255C56.1054 26.0255 55.614 26.229 55.2517 26.5913C54.8894 26.9536 54.6859 27.4449 54.6859 27.9573C54.6859 28.4696 54.8894 28.961 55.2517 29.3233C55.614 29.6856 56.1054 29.8891 56.6177 29.8891H56.6332ZM64.1518 29.8891C64.4058 29.8901 64.6575 29.8409 64.8923 29.7441C65.1271 29.6474 65.3405 29.5052 65.5201 29.3256C65.6997 29.146 65.8419 28.9326 65.9387 28.6978C66.0354 28.4629 66.0847 28.2113 66.0836 27.9573C66.0847 27.7033 66.0354 27.4516 65.9387 27.2168C65.8419 26.982 65.6997 26.7686 65.5201 26.589C65.3405 26.4094 65.1271 26.2672 64.8923 26.1704C64.6575 26.0737 64.4058 26.0244 64.1518 26.0255C63.6395 26.0255 63.1481 26.229 62.7858 26.5913C62.4235 26.9536 62.22 27.4449 62.22 27.9573C62.22 28.4696 62.4235 28.961 62.7858 29.3233C63.1481 29.6856 63.6395 29.8891 64.1518 29.8891ZM71.6627 29.8891C71.9161 29.8891 72.1669 29.8391 72.4008 29.7419C72.6348 29.6447 72.8472 29.5023 73.026 29.3228C73.2048 29.1433 73.3463 28.9303 73.4426 28.696C73.5388 28.4616 73.5878 28.2106 73.5868 27.9573C73.5848 27.4456 73.3806 26.9554 73.0188 26.5935C72.6569 26.2317 72.1667 26.0275 71.655 26.0255C71.1427 26.0255 70.6513 26.229 70.289 26.5913C69.9267 26.9536 69.7232 27.4449 69.7232 27.9573C69.7232 28.4696 69.9267 28.961 70.289 29.3233C70.6513 29.6856 71.1427 29.8891 71.655 29.8891H71.6627ZM79.1582 29.8891C79.4122 29.8901 79.6638 29.8409 79.8987 29.7441C80.1335 29.6474 80.3469 29.5052 80.5265 29.3256C80.7061 29.146 80.8483 28.9326 80.945 28.6978C81.0418 28.4629 81.091 28.2113 81.09 27.9573C81.089 27.704 81.038 27.4533 80.9398 27.2198C80.8417 26.9862 80.6985 26.7743 80.5183 26.5963C80.3381 26.4182 80.1245 26.2775 79.8897 26.1822C79.655 26.0869 79.4038 26.0389 79.1505 26.0409C78.6381 26.0409 78.1467 26.2445 77.7845 26.6067C77.4222 26.969 77.2186 27.4604 77.2186 27.9727C77.2186 28.4851 77.4222 28.9765 77.7845 29.3387C78.1467 29.701 78.6381 29.9046 79.1505 29.9046L79.1582 29.8891ZM86.6845 29.8891C86.9378 29.8902 87.1887 29.8408 87.4227 29.7439C87.6567 29.647 87.8691 29.5045 88.0474 29.3247C88.2258 29.1449 88.3666 28.9314 88.4616 28.6966C88.5566 28.4619 88.604 28.2105 88.6009 27.9573C88.6019 27.7033 88.5527 27.4516 88.4559 27.2168C88.3592 26.982 88.217 26.7686 88.0374 26.589C87.8578 26.4094 87.6444 26.2672 87.4096 26.1704C87.1747 26.0737 86.9231 26.0244 86.6691 26.0255C86.4151 26.0244 86.1634 26.0737 85.9286 26.1704C85.6938 26.2672 85.4804 26.4094 85.3008 26.589C85.1212 26.7686 84.979 26.982 84.8822 27.2168C84.7855 27.4516 84.7363 27.7033 84.7373 27.9573C84.7649 28.4555 84.9819 28.9243 85.344 29.2676C85.706 29.611 86.1856 29.8029 86.6845 29.8041V29.8891ZM94.1877 29.8891C94.7001 29.8891 95.1914 29.6856 95.5537 29.3233C95.916 28.961 96.1195 28.4696 96.1195 27.9573C96.1206 27.7033 96.0713 27.4516 95.9746 27.2168C95.8779 26.982 95.7356 26.7686 95.556 26.589C95.3764 26.4094 95.163 26.2672 94.9282 26.1704C94.6934 26.0737 94.4417 26.0244 94.1877 26.0255C93.6754 26.0255 93.184 26.229 92.8217 26.5913C92.4594 26.9536 92.2559 27.4449 92.2559 27.9573C92.2559 28.4696 92.4594 28.961 92.8217 29.3233C93.184 29.6856 93.6754 29.8891 94.1877 29.8891ZM103.066 29.3096C103.284 29.0814 103.445 28.8051 103.537 28.503C103.628 28.2009 103.647 27.8816 103.592 27.5709C103.565 27.4439 103.526 27.3197 103.476 27.2C103.425 27.0862 103.369 26.9753 103.306 26.8677C103.232 26.765 103.152 26.6669 103.066 26.5741C102.693 26.232 102.205 26.0422 101.699 26.0422C101.192 26.0422 100.704 26.232 100.331 26.5741C100.146 26.7483 100.003 26.9623 99.9136 27.2C99.8634 27.3197 99.8246 27.4439 99.7977 27.5709C99.7768 27.6936 99.7639 27.8175 99.7591 27.9418C99.7611 28.4536 99.9653 28.9437 100.327 29.3056C100.689 29.6674 101.179 29.8716 101.691 29.8737C101.953 29.8592 102.209 29.793 102.445 29.6789C102.681 29.5649 102.892 29.4052 103.066 29.2091V29.3096ZM101.691 102C102.203 102 102.695 101.796 103.057 101.434C103.419 101.072 103.623 100.581 103.623 100.068C103.624 99.8142 103.574 99.5626 103.478 99.3277C103.381 99.0929 103.239 98.8795 103.059 98.6999C102.88 98.5203 102.666 98.3781 102.431 98.2813C102.197 98.1846 101.945 98.1354 101.691 98.1364C101.179 98.1364 100.687 98.3399 100.325 98.7022C99.9626 99.0645 99.7591 99.5558 99.7591 100.068C99.7591 100.581 99.9626 101.072 100.325 101.434C100.687 101.796 101.179 102 101.691 102ZM101.691 93.9636C101.944 93.9647 102.195 93.9156 102.43 93.8194C102.664 93.7232 102.877 93.5816 103.056 93.4028C103.236 93.2241 103.378 93.0116 103.476 92.7777C103.573 92.5437 103.623 92.2929 103.623 92.0396C103.623 91.5265 103.419 91.0343 103.057 90.6708C102.695 90.3073 102.204 90.1021 101.691 90.1C101.179 90.1 100.687 90.3035 100.325 90.6658C99.9626 91.0281 99.7591 91.5195 99.7591 92.0318C99.7591 92.5442 99.9626 93.0355 100.325 93.3978C100.687 93.7601 101.179 93.9636 101.691 93.9636ZM101.691 85.9505C102.203 85.9484 102.693 85.7443 103.055 85.3824C103.417 85.0206 103.621 84.5304 103.623 84.0187C103.623 83.5063 103.419 83.0149 103.057 82.6526C102.695 82.2904 102.203 82.0868 101.691 82.0868C101.179 82.0868 100.687 82.2904 100.325 82.6526C99.9626 83.0149 99.7591 83.5063 99.7591 84.0187C99.7591 84.531 99.9626 85.0224 100.325 85.3847C100.687 85.7469 101.179 85.9505 101.691 85.9505ZM101.691 77.9141C102.203 77.9141 102.695 77.7106 103.057 77.3483C103.419 76.986 103.623 76.4946 103.623 75.9823C103.621 75.4706 103.417 74.9804 103.055 74.6185C102.693 74.2567 102.203 74.0525 101.691 74.0505C101.179 74.0505 100.687 74.254 100.325 74.6163C99.9626 74.9786 99.7591 75.4699 99.7591 75.9823C99.7591 76.4946 99.9626 76.986 100.325 77.3483C100.687 77.7106 101.179 77.9141 101.691 77.9141ZM101.691 69.9009C102.203 69.8989 102.693 69.6947 103.055 69.3329C103.417 68.971 103.621 68.4808 103.623 67.9691C103.623 67.4568 103.419 66.9654 103.057 66.6031C102.695 66.2408 102.203 66.0373 101.691 66.0373C101.179 66.0373 100.687 66.2408 100.325 66.6031C99.9626 66.9654 99.7591 67.4568 99.7591 67.9691C99.7591 68.4815 99.9626 68.9728 100.325 69.3351C100.687 69.6974 101.179 69.9009 101.691 69.9009ZM101.691 61.8646C101.945 61.8646 102.196 61.8146 102.43 61.7175C102.665 61.6204 102.878 61.4781 103.057 61.2987C103.236 61.1194 103.379 60.9064 103.476 60.672C103.573 60.4376 103.623 60.1864 103.623 59.9327C103.621 59.421 103.417 58.9308 103.055 58.569C102.693 58.2071 102.203 58.003 101.691 58.0009C101.179 58.0009 100.687 58.2045 100.325 58.5667C99.9626 58.929 99.7591 59.4204 99.7591 59.9327C99.7591 60.4451 99.9626 60.9365 100.325 61.2987C100.687 61.661 101.179 61.8646 101.691 61.8646ZM101.691 53.8514C102.203 53.8493 102.693 53.6452 103.055 53.2833C103.417 52.9215 103.621 52.4313 103.623 51.9196C103.624 51.6649 103.575 51.4124 103.478 51.1767C103.382 50.941 103.24 50.7266 103.06 50.5458C102.881 50.365 102.667 50.2213 102.433 50.1229C102.198 50.0245 101.946 49.9733 101.691 49.9723C101.208 50.0155 100.759 50.2377 100.433 50.5952C100.106 50.9527 99.9243 51.4196 99.9243 51.9041C99.9243 52.3886 100.106 52.8555 100.433 53.213C100.759 53.5705 101.208 53.7927 101.691 53.8359V53.8514ZM101.691 45.815C102.203 45.815 102.695 45.6115 103.057 45.2492C103.419 44.8869 103.623 44.3955 103.623 43.8832C103.621 43.3715 103.417 42.8813 103.055 42.5194C102.693 42.1576 102.203 41.9534 101.691 41.9514C101.179 41.9514 100.687 42.1549 100.325 42.5172C99.9626 42.8795 99.7591 43.3708 99.7591 43.8832C99.7591 44.3955 99.9626 44.8869 100.325 45.2492C100.687 45.6115 101.179 45.815 101.691 45.815ZM101.691 37.7864C101.945 37.7874 102.197 37.7381 102.431 37.6414C102.666 37.5447 102.88 37.4024 103.059 37.2228C103.239 37.0433 103.381 36.8299 103.478 36.595C103.574 36.3602 103.624 36.1085 103.623 35.8546C103.623 35.3422 103.419 34.8508 103.057 34.4886C102.695 34.1263 102.203 33.9227 101.691 33.9227C101.179 33.9227 100.687 34.1263 100.325 34.4886C99.9626 34.8508 99.7591 35.3422 99.7591 35.8546C99.7591 36.3669 99.9626 36.8583 100.325 37.2206C100.687 37.5828 101.179 37.7864 101.691 37.7864ZM103.066 109.457C103.152 109.364 103.232 109.266 103.306 109.163C103.37 109.054 103.427 108.94 103.476 108.823C103.527 108.712 103.566 108.595 103.592 108.475C103.603 108.347 103.603 108.218 103.592 108.089C103.59 107.578 103.39 107.088 103.035 106.721C102.662 106.379 102.174 106.19 101.668 106.19C101.161 106.19 100.673 106.379 100.3 106.721C99.9407 107.087 99.7359 107.577 99.7282 108.089C99.7338 108.219 99.7467 108.348 99.7668 108.475C99.7926 108.595 99.8314 108.712 99.8827 108.823C99.9284 108.942 99.9854 109.056 100.053 109.163C100.127 109.268 100.209 109.366 100.3 109.457C100.662 109.816 101.15 110.018 101.66 110.021C102.184 110.028 102.689 109.828 103.066 109.465V109.457ZM94.2264 110.021C94.4803 110.022 94.732 109.973 94.9668 109.876C95.2017 109.779 95.4151 109.637 95.5946 109.457C95.7742 109.278 95.9165 109.064 96.0132 108.83C96.1099 108.595 96.1592 108.343 96.1582 108.089C96.1582 107.577 95.9547 107.085 95.5924 106.723C95.2301 106.361 94.7387 106.157 94.2264 106.157C93.714 106.157 93.2226 106.361 92.8604 106.723C92.4981 107.085 92.2945 107.577 92.2945 108.089C92.2945 108.601 92.4981 109.093 92.8604 109.455C93.2226 109.817 93.714 110.021 94.2264 110.021ZM86.7541 110.021C87.0081 110.022 87.2597 109.973 87.4946 109.876C87.7294 109.779 87.9428 109.637 88.1224 109.457C88.302 109.278 88.4442 109.064 88.5409 108.83C88.6377 108.595 88.6869 108.343 88.6859 108.089C88.6859 107.577 88.4824 107.085 88.1201 106.723C87.7578 106.361 87.2664 106.157 86.7541 106.157C86.2417 106.157 85.7504 106.361 85.3881 106.723C85.0258 107.085 84.8223 107.577 84.8223 108.089C84.8223 108.601 85.0258 109.093 85.3881 109.455C85.7504 109.817 86.2417 110.021 86.7541 110.021ZM79.2895 110.021C79.5435 110.022 79.7952 109.973 80.03 109.876C80.2649 109.779 80.4782 109.637 80.6578 109.457C80.8374 109.278 80.9797 109.064 81.0764 108.83C81.1731 108.595 81.2224 108.343 81.2214 108.089C81.2214 107.577 81.0178 107.085 80.6555 106.723C80.2933 106.361 79.8019 106.157 79.2895 106.157C78.7772 106.157 78.2858 106.361 77.9235 106.723C77.5613 107.085 77.3577 107.577 77.3577 108.089C77.3577 108.601 77.5613 109.093 77.9235 109.455C78.2858 109.817 78.7772 110.021 79.2895 110.021ZM71.825 110.021C72.079 110.022 72.3306 109.973 72.5655 109.876C72.8003 109.779 73.0137 109.637 73.1933 109.457C73.3729 109.278 73.5151 109.064 73.6118 108.83C73.7086 108.595 73.7578 108.343 73.7568 108.089C73.7578 107.835 73.7086 107.583 73.6118 107.349C73.5151 107.114 73.3729 106.9 73.1933 106.721C73.0137 106.541 72.8003 106.399 72.5655 106.302C72.3306 106.206 72.079 106.156 71.825 106.157C71.3126 106.157 70.8213 106.361 70.459 106.723C70.0967 107.085 69.8932 107.577 69.8932 108.089C69.8932 108.601 70.0967 109.093 70.459 109.455C70.8213 109.817 71.3126 110.021 71.825 110.021ZM64.3605 110.021C64.6144 110.022 64.8661 109.973 65.1009 109.876C65.3358 109.779 65.5491 109.637 65.7287 109.457C65.9083 109.278 66.0506 109.064 66.1473 108.83C66.244 108.595 66.2933 108.343 66.2923 108.089C66.2923 107.577 66.0887 107.085 65.7265 106.723C65.3642 106.361 64.8728 106.157 64.3605 106.157C63.8481 106.157 63.3567 106.361 62.9945 106.723C62.6322 107.085 62.4286 107.577 62.4286 108.089C62.4286 108.601 62.6322 109.093 62.9945 109.455C63.3567 109.817 63.8481 110.021 64.3605 110.021ZM56.8959 110.021C57.4083 110.021 57.8996 109.817 58.2619 109.455C58.6242 109.093 58.8277 108.601 58.8277 108.089C58.8257 107.577 58.6215 107.087 58.2597 106.725C57.8978 106.364 57.4076 106.159 56.8959 106.157C56.3836 106.157 55.8922 106.361 55.5299 106.723C55.1676 107.085 54.9641 107.577 54.9641 108.089C54.9641 108.601 55.1676 109.093 55.5299 109.455C55.8922 109.817 56.3836 110.021 56.8959 110.021ZM49.4236 110.021C49.6776 110.022 49.9293 109.973 50.1641 109.876C50.399 109.779 50.6123 109.637 50.7919 109.457C50.9715 109.278 51.1138 109.064 51.2105 108.83C51.3072 108.595 51.3565 108.343 51.3555 108.089C51.3565 107.835 51.3072 107.583 51.2105 107.349C51.1138 107.114 50.9715 106.9 50.7919 106.721C50.6123 106.541 50.399 106.399 50.1641 106.302C49.9293 106.206 49.6776 106.156 49.4236 106.157C48.9113 106.157 48.4199 106.361 48.0576 106.723C47.6954 107.085 47.4918 107.577 47.4918 108.089C47.4918 108.601 47.6954 109.093 48.0576 109.455C48.4199 109.817 48.9113 110.021 49.4236 110.021ZM41.9668 110.021C42.2208 110.022 42.4725 109.973 42.7073 109.876C42.9421 109.779 43.1555 109.637 43.3351 109.457C43.5147 109.278 43.6569 109.064 43.7537 108.83C43.8504 108.595 43.8997 108.343 43.8986 108.089C43.8986 107.577 43.6951 107.085 43.3328 106.723C42.9705 106.361 42.4792 106.157 41.9668 106.157C41.4545 106.157 40.9631 106.361 40.6008 106.723C40.2385 107.085 40.035 107.577 40.035 108.089C40.035 108.601 40.2385 109.093 40.6008 109.455C40.9631 109.817 41.4545 110.021 41.9668 110.021ZM34.8655 110.021C34.9931 110.001 35.1177 109.964 35.2364 109.913C35.3482 109.867 35.4524 109.804 35.5455 109.727C35.6539 109.658 35.7549 109.578 35.8468 109.488C35.9325 109.397 36.01 109.299 36.0786 109.194C36.2146 108.984 36.3114 108.751 36.3645 108.506C36.3947 108.38 36.4103 108.25 36.4109 108.12C36.4101 107.608 36.2075 107.116 35.8468 106.752C35.7547 106.665 35.6537 106.587 35.5455 106.52C35.449 106.442 35.339 106.382 35.2209 106.343C35.1023 106.291 34.9777 106.255 34.85 106.235C34.5411 106.173 34.222 106.188 33.9203 106.279C33.6186 106.369 33.3436 106.531 33.1191 106.752C32.7563 107.115 32.5509 107.607 32.5473 108.12C32.5362 108.249 32.5362 108.378 32.5473 108.506C32.5742 108.625 32.6103 108.741 32.6555 108.854C32.7095 108.97 32.7714 109.086 32.8332 109.194C32.9048 109.301 32.9877 109.399 33.0805 109.488C33.4411 109.849 33.9303 110.052 34.4405 110.052C34.584 110.047 34.7265 110.026 34.8655 109.99V110.021ZM34.4636 102C34.976 102 35.4674 101.796 35.8296 101.434C36.1919 101.072 36.3955 100.581 36.3955 100.068C36.3965 99.8129 36.3467 99.56 36.249 99.3241C36.1514 99.0882 36.0077 98.8742 35.8265 98.6944C35.6453 98.5146 35.43 98.3727 35.1934 98.2769C34.9568 98.1811 34.7035 98.1333 34.4482 98.1364C33.9358 98.1364 33.4445 98.3399 33.0822 98.7022C32.7199 99.0645 32.5164 99.5558 32.5164 100.068C32.5164 100.581 32.7199 101.072 33.0822 101.434C33.4445 101.796 33.9358 102 34.4482 102H34.4636ZM34.4173 93.9868C34.67 93.9858 34.92 93.935 35.153 93.8374C35.3861 93.7398 35.5976 93.5972 35.7756 93.4178C35.9535 93.2384 36.0944 93.0258 36.1901 92.7919C36.2859 92.5581 36.3347 92.3077 36.3336 92.055C36.3326 91.8003 36.2815 91.5483 36.183 91.3134C36.0846 91.0784 35.9409 90.8652 35.7601 90.6858C35.5793 90.5064 35.3649 90.3644 35.1292 90.2679C34.8935 90.1713 34.6411 90.1222 34.3864 90.1232C33.874 90.1232 33.3826 90.3267 33.0204 90.689C32.6581 91.0513 32.4545 91.5427 32.4545 92.055C32.4545 92.5674 32.6581 93.0587 33.0204 93.421C33.3826 93.7833 33.874 93.9868 34.3864 93.9868H34.4173ZM34.4173 85.9814C34.672 85.9804 34.924 85.9292 35.1589 85.8308C35.3939 85.7324 35.6071 85.5887 35.7865 85.4078C35.9659 85.227 36.1079 85.0126 36.2044 84.7769C36.3009 84.5412 36.3501 84.2888 36.3491 84.0341C36.343 83.5224 36.1349 83.0338 35.7701 82.6749C35.4054 82.3159 34.9136 82.1157 34.4018 82.1177C33.8895 82.1177 33.3981 82.3213 33.0358 82.6836C32.6735 83.0458 32.47 83.5372 32.47 84.0496C32.47 84.5619 32.6735 85.0533 33.0358 85.4156C33.3981 85.7778 33.8895 85.9814 34.4018 85.9814H34.4173ZM34.3709 77.9682C34.8826 77.9621 35.3712 77.754 35.7301 77.3892C36.0891 77.0245 36.2893 76.5327 36.2873 76.0209C36.2873 75.768 36.2372 75.5175 36.1399 75.284C36.0427 75.0505 35.9001 74.8385 35.7205 74.6604C35.5409 74.4822 35.3279 74.3414 35.0936 74.246C34.8593 74.1506 34.6084 74.1025 34.3555 74.1046C33.8431 74.1046 33.3517 74.3081 32.9895 74.6704C32.6272 75.0327 32.4236 75.524 32.4236 76.0364C32.4236 76.5487 32.6272 77.0401 32.9895 77.4024C33.3517 77.7647 33.8431 77.9682 34.3555 77.9682H34.3709ZM34.3709 69.9473C34.8758 69.9331 35.3549 69.721 35.7048 69.3567C36.0546 68.9924 36.2472 68.5051 36.2409 68C36.2389 67.487 36.0336 66.9956 35.6701 66.6335C35.3066 66.2715 34.8144 66.0682 34.3014 66.0682C33.789 66.0682 33.2976 66.2717 32.9354 66.634C32.5731 66.9963 32.3695 67.4877 32.3695 68C32.3695 68.5124 32.5731 69.0037 32.9354 69.366C33.2976 69.7283 33.789 69.9318 34.3014 69.9318L34.3709 69.9473ZM34.3709 61.9341C34.6256 61.9331 34.8776 61.8819 35.1126 61.7835C35.3475 61.6851 35.5607 61.5414 35.7401 61.3606C35.9195 61.1797 36.0615 60.9654 36.1581 60.7297C36.2546 60.4939 36.3037 60.2415 36.3027 59.9868C36.2966 59.4751 36.0885 58.9866 35.7238 58.6276C35.359 58.2687 34.8672 58.0684 34.3555 58.0705C33.8431 58.0705 33.3517 58.274 32.9895 58.6363C32.6272 58.9986 32.4236 59.4899 32.4236 60.0023C32.4236 60.5146 32.6272 61.006 32.9895 61.3683C33.3517 61.7306 33.8431 61.9341 34.3555 61.9341H34.3709ZM34.3245 53.9132C34.5778 53.9142 34.8287 53.8649 35.0627 53.768C35.2967 53.6711 35.5091 53.5286 35.6874 53.3488C35.8658 53.169 36.0066 52.9555 36.1016 52.7207C36.1966 52.4859 36.244 52.2346 36.2409 51.9814C36.242 51.7281 36.1926 51.4772 36.0957 51.2432C35.9988 51.0092 35.8563 50.7969 35.6765 50.6185C35.4967 50.4401 35.2832 50.2993 35.0484 50.2043C34.8137 50.1093 34.5623 50.0619 34.3091 50.065C33.7967 50.065 33.3054 50.2685 32.9431 50.6308C32.5808 50.9931 32.3773 51.4845 32.3773 51.9968C32.3773 52.5092 32.5808 53.0005 32.9431 53.3628C33.3054 53.7251 33.7967 53.9287 34.3091 53.9287L34.3245 53.9132ZM34.3245 45.9C34.8342 45.8959 35.3216 45.6906 35.6806 45.3288C36.0395 44.9669 36.2409 44.4779 36.2409 43.9682C36.2399 43.7135 36.1887 43.4615 36.0903 43.2266C35.9919 42.9916 35.8482 42.7784 35.6674 42.599C35.4865 42.4196 35.2722 42.2776 35.0365 42.1811C34.8008 42.0845 34.5483 42.0354 34.2936 42.0364C33.7813 42.0364 33.2899 42.2399 32.9276 42.6022C32.5653 42.9645 32.3618 43.4558 32.3618 43.9682C32.3618 44.4805 32.5653 44.9719 32.9276 45.3342C33.2899 45.6965 33.7813 45.9 34.2936 45.9H34.3245ZM34.2782 37.8946C34.5322 37.8936 34.7834 37.8423 35.0175 37.7437C35.2516 37.6451 35.4638 37.5011 35.642 37.3201C35.8201 37.1391 35.9607 36.9246 36.0555 36.6889C36.1504 36.4533 36.1976 36.2013 36.1945 35.9473C36.1946 35.6943 36.1445 35.4439 36.0472 35.2103C35.9499 34.9768 35.8074 34.7649 35.6278 34.5867C35.4482 34.4086 35.2351 34.2677 35.0008 34.1723C34.7665 34.0769 34.5157 34.0289 34.2627 34.0309C33.7504 34.0309 33.259 34.2345 32.8967 34.5967C32.5344 34.959 32.3309 35.4504 32.3309 35.9627C32.3309 36.4751 32.5344 36.9665 32.8967 37.3287C33.259 37.691 33.7504 37.8946 34.2627 37.8946H34.2782ZM89.6209 44.5786C90.1326 44.5766 90.6228 44.3724 90.9847 44.0106C91.3465 43.6487 91.5507 43.1586 91.5527 42.6468C91.5527 42.1345 91.3492 41.6431 90.9869 41.2808C90.6246 40.9185 90.1333 40.715 89.6209 40.715C89.1086 40.715 88.6172 40.9185 88.2549 41.2808C87.8926 41.6431 87.6891 42.1345 87.6891 42.6468C87.6891 43.1592 87.8926 43.6505 88.2549 44.0128C88.6172 44.3751 89.1086 44.5786 89.6209 44.5786ZM81.8936 44.5786C82.4054 44.5766 82.8955 44.3724 83.2574 44.0106C83.6192 43.6487 83.8234 43.1586 83.8255 42.6468C83.8255 42.1345 83.6219 41.6431 83.2596 41.2808C82.8973 40.9185 82.406 40.715 81.8936 40.715C81.3813 40.715 80.8899 40.9185 80.5276 41.2808C80.1654 41.6431 79.9618 42.1345 79.9618 42.6468C79.9618 43.1592 80.1654 43.6505 80.5276 44.0128C80.8899 44.3751 81.3813 44.5786 81.8936 44.5786ZM74.1664 44.5786C74.6781 44.5766 75.1683 44.3724 75.5301 44.0106C75.892 43.6487 76.0961 43.1586 76.0982 42.6468C76.0982 42.1345 75.8946 41.6431 75.5324 41.2808C75.1701 40.9185 74.6787 40.715 74.1664 40.715C73.654 40.715 73.1627 40.9185 72.8004 41.2808C72.4381 41.6431 72.2346 42.1345 72.2346 42.6468C72.2346 43.1592 72.4381 43.6505 72.8004 44.0128C73.1627 44.3751 73.654 44.5786 74.1664 44.5786ZM66.4391 44.5786C66.9508 44.5766 67.441 44.3724 67.8028 44.0106C68.1647 43.6487 68.3689 43.1586 68.3709 42.6468C68.3709 42.1345 68.1674 41.6431 67.8051 41.2808C67.4428 40.9185 66.9514 40.715 66.4391 40.715C65.9267 40.715 65.4354 40.9185 65.0731 41.2808C64.7108 41.6431 64.5073 42.1345 64.5073 42.6468C64.5073 43.1592 64.7108 43.6505 65.0731 44.0128C65.4354 44.3751 65.9267 44.5786 66.4391 44.5786ZM58.7118 44.5786C59.2235 44.5766 59.7137 44.3724 60.0756 44.0106C60.4374 43.6487 60.6416 43.1586 60.6436 42.6468C60.6436 42.1345 60.4401 41.6431 60.0778 41.2808C59.7155 40.9185 59.2242 40.715 58.7118 40.715C58.1995 40.715 57.7081 40.9185 57.3458 41.2808C56.9835 41.6431 56.78 42.1345 56.78 42.6468C56.78 43.1592 56.9835 43.6505 57.3458 44.0128C57.7081 44.3751 58.1995 44.5786 58.7118 44.5786ZM50.9845 44.5786C51.4963 44.5766 51.9865 44.3724 52.3483 44.0106C52.7101 43.6487 52.9143 43.1586 52.9164 42.6468C52.9164 42.1345 52.7128 41.6431 52.3505 41.2808C51.9883 40.9185 51.4969 40.715 50.9845 40.715C50.4722 40.715 49.9808 40.9185 49.6185 41.2808C49.2563 41.6431 49.0527 42.1345 49.0527 42.6468C49.0527 43.1592 49.2563 43.6505 49.6185 44.0128C49.9808 44.3751 50.4722 44.5786 50.9845 44.5786ZM89.6209 57.715C89.8749 57.716 90.1265 57.6668 90.3614 57.57C90.5962 57.4733 90.8096 57.3311 90.9892 57.1515C91.1688 56.9719 91.311 56.7585 91.4078 56.5237C91.5045 56.2888 91.5537 56.0372 91.5527 55.7832C91.5527 55.2708 91.3492 54.7795 90.9869 54.4172C90.6246 54.0549 90.1333 53.8514 89.6209 53.8514C89.1086 53.8514 88.6172 54.0549 88.2549 54.4172C87.8926 54.7795 87.6891 55.2708 87.6891 55.7832C87.6891 56.2955 87.8926 56.7869 88.2549 57.1492C88.6172 57.5115 89.1086 57.715 89.6209 57.715ZM81.8936 57.715C82.1476 57.716 82.3993 57.6668 82.6341 57.57C82.869 57.4733 83.0823 57.3311 83.2619 57.1515C83.4415 56.9719 83.5838 56.7585 83.6805 56.5237C83.7772 56.2888 83.8265 56.0372 83.8255 55.7832C83.8255 55.2708 83.6219 54.7795 83.2596 54.4172C82.8973 54.0549 82.406 53.8514 81.8936 53.8514C81.3813 53.8514 80.8899 54.0549 80.5276 54.4172C80.1654 54.7795 79.9618 55.2708 79.9618 55.7832C79.9618 56.2955 80.1654 56.7869 80.5276 57.1492C80.8899 57.5115 81.3813 57.715 81.8936 57.715ZM74.1664 57.715C74.4203 57.716 74.672 57.6668 74.9068 57.57C75.1417 57.4733 75.3551 57.3311 75.5346 57.1515C75.7142 56.9719 75.8565 56.7585 75.9532 56.5237C76.0499 56.2888 76.0992 56.0372 76.0982 55.7832C76.0982 55.2708 75.8946 54.7795 75.5324 54.4172C75.1701 54.0549 74.6787 53.8514 74.1664 53.8514C73.654 53.8514 73.1627 54.0549 72.8004 54.4172C72.4381 54.7795 72.2346 55.2708 72.2346 55.7832C72.2346 56.2955 72.4381 56.7869 72.8004 57.1492C73.1627 57.5115 73.654 57.715 74.1664 57.715ZM66.4391 57.715C66.6931 57.716 66.9447 57.6668 67.1796 57.57C67.4144 57.4733 67.6278 57.3311 67.8074 57.1515C67.987 56.9719 68.1292 56.7585 68.2259 56.5237C68.3227 56.2888 68.3719 56.0372 68.3709 55.7832C68.3709 55.2708 68.1674 54.7795 67.8051 54.4172C67.4428 54.0549 66.9514 53.8514 66.4391 53.8514C65.9267 53.8514 65.4354 54.0549 65.0731 54.4172C64.7108 54.7795 64.5073 55.2708 64.5073 55.7832C64.5073 56.2955 64.7108 56.7869 65.0731 57.1492C65.4354 57.5115 65.9267 57.715 66.4391 57.715ZM58.7118 57.715C58.9658 57.716 59.2175 57.6668 59.4523 57.57C59.6871 57.4733 59.9005 57.3311 60.0801 57.1515C60.2597 56.9719 60.402 56.7585 60.4987 56.5237C60.5954 56.2888 60.6447 56.0372 60.6436 55.7832C60.6436 55.2708 60.4401 54.7795 60.0778 54.4172C59.7155 54.0549 59.2242 53.8514 58.7118 53.8514C58.1995 53.8514 57.7081 54.0549 57.3458 54.4172C56.9835 54.7795 56.78 55.2708 56.78 55.7832C56.78 56.2955 56.9835 56.7869 57.3458 57.1492C57.7081 57.5115 58.1995 57.715 58.7118 57.715ZM50.9845 57.715C51.2385 57.716 51.4902 57.6668 51.725 57.57C51.9599 57.4733 52.1732 57.3311 52.3528 57.1515C52.5324 56.9719 52.6747 56.7585 52.7714 56.5237C52.8681 56.2888 52.9174 56.0372 52.9164 55.7832C52.9164 55.2708 52.7128 54.7795 52.3505 54.4172C51.9883 54.0549 51.4969 53.8514 50.9845 53.8514C50.4722 53.8514 49.9808 54.0549 49.6185 54.4172C49.2563 54.7795 49.0527 55.2708 49.0527 55.7832C49.0527 56.2955 49.2563 56.7869 49.6185 57.1492C49.9808 57.5115 50.4722 57.715 50.9845 57.715ZM89.6209 70.8514C90.1326 70.8493 90.6228 70.6452 90.9847 70.2833C91.3465 69.9215 91.5507 69.4313 91.5527 68.9196C91.5527 68.4072 91.3492 67.9158 90.9869 67.5536C90.6246 67.1913 90.1333 66.9877 89.6209 66.9877C89.1086 66.9877 88.6172 67.1913 88.2549 67.5536C87.8926 67.9158 87.6891 68.4072 87.6891 68.9196C87.6891 69.4319 87.8926 69.9233 88.2549 70.2856C88.6172 70.6478 89.1086 70.8514 89.6209 70.8514ZM81.8936 70.8514C82.4054 70.8493 82.8955 70.6452 83.2574 70.2833C83.6192 69.9215 83.8234 69.4313 83.8255 68.9196C83.8255 68.4072 83.6219 67.9158 83.2596 67.5536C82.8973 67.1913 82.406 66.9877 81.8936 66.9877C81.3813 66.9877 80.8899 67.1913 80.5276 67.5536C80.1654 67.9158 79.9618 68.4072 79.9618 68.9196C79.9618 69.4319 80.1654 69.9233 80.5276 70.2856C80.8899 70.6478 81.3813 70.8514 81.8936 70.8514ZM74.1664 70.8514C74.6781 70.8493 75.1683 70.6452 75.5301 70.2833C75.892 69.9215 76.0961 69.4313 76.0982 68.9196C76.0982 68.4072 75.8946 67.9158 75.5324 67.5536C75.1701 67.1913 74.6787 66.9877 74.1664 66.9877C73.654 66.9877 73.1627 67.1913 72.8004 67.5536C72.4381 67.9158 72.2346 68.4072 72.2346 68.9196C72.2346 69.4319 72.4381 69.9233 72.8004 70.2856C73.1627 70.6478 73.654 70.8514 74.1664 70.8514ZM66.4391 70.8514C66.9508 70.8493 67.441 70.6452 67.8028 70.2833C68.1647 69.9215 68.3689 69.4313 68.3709 68.9196C68.3709 68.4072 68.1674 67.9158 67.8051 67.5536C67.4428 67.1913 66.9514 66.9877 66.4391 66.9877C65.9267 66.9877 65.4354 67.1913 65.0731 67.5536C64.7108 67.9158 64.5073 68.4072 64.5073 68.9196C64.5073 69.4319 64.7108 69.9233 65.0731 70.2856C65.4354 70.6478 65.9267 70.8514 66.4391 70.8514ZM58.7118 70.8514C59.2235 70.8493 59.7137 70.6452 60.0756 70.2833C60.4374 69.9215 60.6416 69.4313 60.6436 68.9196C60.6436 68.4072 60.4401 67.9158 60.0778 67.5536C59.7155 67.1913 59.2242 66.9877 58.7118 66.9877C58.1995 66.9877 57.7081 67.1913 57.3458 67.5536C56.9835 67.9158 56.78 68.4072 56.78 68.9196C56.78 69.4319 56.9835 69.9233 57.3458 70.2856C57.7081 70.6478 58.1995 70.8514 58.7118 70.8514ZM50.9845 70.8514C51.4963 70.8493 51.9865 70.6452 52.3483 70.2833C52.7101 69.9215 52.9143 69.4313 52.9164 68.9196C52.9164 68.4072 52.7128 67.9158 52.3505 67.5536C51.9883 67.1913 51.4969 66.9877 50.9845 66.9877C50.4722 66.9877 49.9808 67.1913 49.6185 67.5536C49.2563 67.9158 49.0527 68.4072 49.0527 68.9196C49.0527 69.4319 49.2563 69.9233 49.6185 70.2856C49.9808 70.6478 50.4722 70.8514 50.9845 70.8514ZM89.6209 83.9877C90.1326 83.9857 90.6228 83.7815 90.9847 83.4197C91.3465 83.0578 91.5507 82.5676 91.5527 82.0559C91.5537 81.8019 91.5045 81.5503 91.4078 81.3154C91.311 81.0806 91.1688 80.8672 90.9892 80.6876C90.8096 80.508 90.5962 80.3658 90.3614 80.2691C90.1265 80.1724 89.8749 80.1231 89.6209 80.1241C89.1086 80.1241 88.6172 80.3276 88.2549 80.6899C87.8926 81.0522 87.6891 81.5436 87.6891 82.0559C87.6891 82.5683 87.8926 83.0596 88.2549 83.4219C88.6172 83.7842 89.1086 83.9877 89.6209 83.9877ZM81.8936 83.9877C82.4054 83.9857 82.8955 83.7815 83.2574 83.4197C83.6192 83.0578 83.8234 82.5676 83.8255 82.0559C83.8265 81.8019 83.7772 81.5503 83.6805 81.3154C83.5838 81.0806 83.4415 80.8672 83.2619 80.6876C83.0823 80.508 82.869 80.3658 82.6341 80.2691C82.3993 80.1724 82.1476 80.1231 81.8936 80.1241C81.3813 80.1241 80.8899 80.3276 80.5276 80.6899C80.1654 81.0522 79.9618 81.5436 79.9618 82.0559C79.9618 82.5683 80.1654 83.0596 80.5276 83.4219C80.8899 83.7842 81.3813 83.9877 81.8936 83.9877ZM74.1664 83.9877C74.6781 83.9857 75.1683 83.7815 75.5301 83.4197C75.892 83.0578 76.0961 82.5676 76.0982 82.0559C76.0992 81.8019 76.0499 81.5503 75.9532 81.3154C75.8565 81.0806 75.7142 80.8672 75.5346 80.6876C75.3551 80.508 75.1417 80.3658 74.9068 80.2691C74.672 80.1724 74.4203 80.1231 74.1664 80.1241C73.654 80.1241 73.1627 80.3276 72.8004 80.6899C72.4381 81.0522 72.2346 81.5436 72.2346 82.0559C72.2346 82.5683 72.4381 83.0596 72.8004 83.4219C73.1627 83.7842 73.654 83.9877 74.1664 83.9877ZM66.4391 83.9877C66.9508 83.9857 67.441 83.7815 67.8028 83.4197C68.1647 83.0578 68.3689 82.5676 68.3709 82.0559C68.3719 81.8019 68.3227 81.5503 68.2259 81.3154C68.1292 81.0806 67.987 80.8672 67.8074 80.6876C67.6278 80.508 67.4144 80.3658 67.1796 80.2691C66.9447 80.1724 66.6931 80.1231 66.4391 80.1241C65.9267 80.1241 65.4354 80.3276 65.0731 80.6899C64.7108 81.0522 64.5073 81.5436 64.5073 82.0559C64.5073 82.5683 64.7108 83.0596 65.0731 83.4219C65.4354 83.7842 65.9267 83.9877 66.4391 83.9877ZM58.7118 83.9877C59.2235 83.9857 59.7137 83.7815 60.0756 83.4197C60.4374 83.0578 60.6416 82.5676 60.6436 82.0559C60.6447 81.8019 60.5954 81.5503 60.4987 81.3154C60.402 81.0806 60.2597 80.8672 60.0801 80.6876C59.9005 80.508 59.6871 80.3658 59.4523 80.2691C59.2175 80.1724 58.9658 80.1231 58.7118 80.1241C58.1995 80.1241 57.7081 80.3276 57.3458 80.6899C56.9835 81.0522 56.78 81.5436 56.78 82.0559C56.78 82.5683 56.9835 83.0596 57.3458 83.4219C57.7081 83.7842 58.1995 83.9877 58.7118 83.9877ZM50.9845 83.9877C51.4963 83.9857 51.9865 83.7815 52.3483 83.4197C52.7101 83.0578 52.9143 82.5676 52.9164 82.0559C52.9174 81.8019 52.8681 81.5503 52.7714 81.3154C52.6747 81.0806 52.5324 80.8672 52.3528 80.6876C52.1732 80.508 51.9599 80.3658 51.725 80.2691C51.4902 80.1724 51.2385 80.1231 50.9845 80.1241C50.4722 80.1241 49.9808 80.3276 49.6185 80.6899C49.2563 81.0522 49.0527 81.5436 49.0527 82.0559C49.0527 82.5683 49.2563 83.0596 49.6185 83.4219C49.9808 83.7842 50.4722 83.9877 50.9845 83.9877ZM75.5186 96.1273C75.7726 96.1283 76.0243 96.079 76.2591 95.9823C76.494 95.8856 76.7073 95.7433 76.8869 95.5638C77.0665 95.3842 77.2088 95.1708 77.3055 94.936C77.4022 94.7011 77.4515 94.4494 77.4505 94.1955C77.4505 93.6831 77.2469 93.1917 76.8846 92.8295C76.5223 92.4672 76.031 92.2636 75.5186 92.2636C75.0063 92.2636 74.5149 92.4672 74.1526 92.8295C73.7904 93.1917 73.5868 93.6831 73.5868 94.1955C73.5868 94.7078 73.7904 95.1992 74.1526 95.5615C74.5149 95.9238 75.0063 96.1273 75.5186 96.1273ZM67.7914 96.1273C68.0453 96.1283 68.297 96.079 68.5318 95.9823C68.7667 95.8856 68.9801 95.7433 69.1596 95.5638C69.3392 95.3842 69.4815 95.1708 69.5782 94.936C69.6749 94.7011 69.7242 94.4494 69.7232 94.1955C69.7232 93.6831 69.5196 93.1917 69.1574 92.8295C68.7951 92.4672 68.3037 92.2636 67.7914 92.2636C67.279 92.2636 66.7876 92.4672 66.4254 92.8295C66.0631 93.1917 65.8595 93.6831 65.8595 94.1955C65.8595 94.7078 66.0631 95.1992 66.4254 95.5615C66.7876 95.9238 67.279 96.1273 67.7914 96.1273ZM60.0641 96.1273C60.3181 96.1283 60.5697 96.079 60.8046 95.9823C61.0394 95.8856 61.2528 95.7433 61.4324 95.5638C61.612 95.3842 61.7542 95.1708 61.8509 94.936C61.9477 94.7011 61.9969 94.4494 61.9959 94.1955C61.9959 93.6831 61.7924 93.1917 61.4301 92.8295C61.0678 92.4672 60.5764 92.2636 60.0641 92.2636C59.5517 92.2636 59.0604 92.4672 58.6981 92.8295C58.3358 93.1917 58.1323 93.6831 58.1323 94.1955C58.1323 94.7078 58.3358 95.1992 58.6981 95.5615C59.0604 95.9238 59.5517 96.1273 60.0641 96.1273ZM27.8182 29.8659C28.3305 29.8659 28.8219 29.6624 29.1842 29.3001C29.5465 28.9378 29.75 28.4465 29.75 27.9341C29.75 27.4218 29.5465 26.9304 29.1842 26.5681C28.8219 26.2058 28.3305 26.0023 27.8182 26.0023C27.3058 26.0023 26.8145 26.2058 26.4522 26.5681C26.0899 26.9304 25.8864 27.4218 25.8864 27.9341C25.8864 28.4465 26.0899 28.9378 26.4522 29.3001C26.8145 29.6624 27.3058 29.8659 27.8182 29.8659ZM19.6273 29.8659C20.1396 29.8659 20.631 29.6624 20.9933 29.3001C21.3556 28.9378 21.5591 28.4465 21.5591 27.9341C21.5591 27.4218 21.3556 26.9304 20.9933 26.5681C20.631 26.2058 20.1396 26.0023 19.6273 26.0023C19.1149 26.0023 18.6236 26.2058 18.2613 26.5681C17.899 26.9304 17.6955 27.4218 17.6955 27.9341C17.6955 28.4465 17.899 28.9378 18.2613 29.3001C18.6236 29.6624 19.1149 29.8659 19.6273 29.8659ZM7.72727 29.8659C7.98096 29.8659 8.23217 29.816 8.46655 29.7189C8.70093 29.6218 8.91389 29.4795 9.09328 29.3001C9.27266 29.1207 9.41496 28.9078 9.51204 28.6734C9.60912 28.439 9.65909 28.1878 9.65909 27.9341C9.65909 27.6804 9.60912 27.4292 9.51204 27.1948C9.41496 26.9605 9.27266 26.7475 9.09328 26.5681C8.91389 26.3887 8.70093 26.2464 8.46655 26.1493C8.23217 26.0523 7.98096 26.0023 7.72727 26.0023C7.21492 26.0023 6.72356 26.2058 6.36127 26.5681C5.99899 26.9304 5.79546 27.4218 5.79546 27.9341C5.79546 28.4465 5.99899 28.9378 6.36127 29.3001C6.72356 29.6624 7.21492 29.8659 7.72727 29.8659ZM109.959 106.366C109.447 106.366 108.955 106.569 108.593 106.932C108.231 107.294 108.027 107.785 108.027 108.298C108.027 108.81 108.231 109.301 108.593 109.664C108.955 110.026 109.447 110.23 109.959 110.23C110.471 110.23 110.963 110.026 111.325 109.664C111.687 109.301 111.891 108.81 111.891 108.298C111.891 107.785 111.687 107.294 111.325 106.932C110.963 106.569 110.471 106.366 109.959 106.366ZM120.198 106.366C119.685 106.366 119.194 106.569 118.832 106.932C118.469 107.294 118.266 107.785 118.266 108.298C118.266 108.81 118.469 109.301 118.832 109.664C119.194 110.026 119.685 110.23 120.198 110.23C120.71 110.23 121.201 110.026 121.564 109.664C121.926 109.301 122.13 108.81 122.13 108.298C122.13 107.785 121.926 107.294 121.564 106.932C121.201 106.569 120.71 106.366 120.198 106.366ZM131.14 106.366C130.627 106.366 130.136 106.569 129.774 106.932C129.411 107.294 129.208 107.785 129.208 108.298C129.208 108.81 129.411 109.301 129.774 109.664C130.136 110.026 130.627 110.23 131.14 110.23C131.652 110.23 132.143 110.026 132.506 109.664C132.868 109.301 133.071 108.81 133.071 108.298C133.071 107.785 132.868 107.294 132.506 106.932C132.143 106.569 131.652 106.366 131.14 106.366Z" fill="#E69B38"/>
</svg>
