<svg width="80" height="80" viewBox="24 32.69040298461914 32 26.001697540283203" fill="none" xmlns="http://www.w3.org/2000/svg">
<path d="M34.0634 58.6921C46.1389 58.6921 52.7437 48.6876 52.7437 40.0117C52.7437 39.7276 52.7437 39.4447 52.7245 39.1631C54.0094 38.2337 55.1185 37.0829 56 35.7647C54.8018 36.2957 53.5307 36.6438 52.2291 36.7977C53.5997 35.9772 54.6254 34.6867 55.1155 33.1663C53.8268 33.931 52.4168 34.47 50.9466 34.7599C49.9567 33.7073 48.6475 33.0104 47.2216 32.7768C45.7957 32.5433 44.3326 32.7862 43.0586 33.468C41.7847 34.1498 40.771 35.2324 40.1743 36.5484C39.5777 37.8643 39.4314 39.3403 39.7581 40.7477C37.1478 40.6169 34.5943 39.9386 32.2632 38.7568C29.9321 37.5751 27.8756 35.9163 26.2272 33.8882C25.3876 35.3336 25.1305 37.0445 25.5081 38.6728C25.8858 40.301 26.8698 41.7242 28.2598 42.6524C27.215 42.6214 26.193 42.3396 25.28 41.8306C25.28 41.8575 25.28 41.8857 25.28 41.9138C25.2804 43.4296 25.8051 44.8986 26.7652 46.0716C27.7252 47.2447 29.0614 48.0495 30.5472 48.3497C29.5806 48.6133 28.5665 48.6518 27.5827 48.4623C28.0023 49.7668 28.819 50.9076 29.9188 51.7251C31.0186 52.5426 32.3464 52.9959 33.7165 53.0217C31.3917 54.8488 28.5198 55.8406 25.5629 55.8377C25.0405 55.8367 24.5187 55.805 24 55.7429C27.0024 57.6697 30.4959 58.6917 34.0634 58.6869" fill="#FEB960"></path>
</svg>
